<svg width="706" height="132" viewBox="0 0 706 132" fill="none" xmlns="http://www.w3.org/2000/svg">
<path d="M61.944 82.118L49.662 24.98H49.306L37.024 82.118H61.944ZM65.326 2.90801L98.968 130H72.268L66.394 103.122H32.574L26.7 130H0L33.642 2.90801H65.326Z" fill="black"/>
<path d="M133.44 111.132V72.862H144.476C147.324 72.862 149.935 73.1587 152.308 73.752C154.682 74.3454 156.699 75.4134 158.36 76.956C160.14 78.38 161.505 80.338 162.454 82.83C163.522 85.2034 164.056 88.2294 164.056 91.908C164.056 99.2654 162.158 104.309 158.36 107.038C154.563 109.767 149.579 111.132 143.408 111.132H133.44ZM133.44 55.062V21.776H142.696C149.104 21.776 153.792 23.022 156.758 25.514C159.725 28.006 161.208 32.278 161.208 38.33C161.208 44.382 159.547 48.7134 156.224 51.324C153.02 53.816 147.858 55.062 140.738 55.062H133.44ZM107.808 2.90801V130H151.062C158.538 130 164.768 128.991 169.752 126.974C174.855 124.957 178.949 122.287 182.034 118.964C185.238 115.523 187.493 111.547 188.798 107.038C190.104 102.529 190.756 97.782 190.756 92.798C190.756 84.254 188.68 77.4307 184.526 72.328C180.373 67.2253 174.736 64.1994 167.616 63.25V62.894C174.024 61.114 178.83 57.7914 182.034 52.926C185.238 47.942 186.84 42.0087 186.84 35.126C186.84 29.074 185.95 23.9713 184.17 19.818C182.39 15.6647 179.898 12.342 176.694 9.85002C173.49 7.35802 169.634 5.57802 165.124 4.51002C160.734 3.44202 155.928 2.90801 150.706 2.90801H107.808Z" fill="black"/>
<path d="M229.678 66.454C229.678 57.91 229.856 50.6714 230.212 44.738C230.687 38.8047 231.518 33.9393 232.704 30.142C234.01 26.3447 235.79 23.6153 238.044 21.954C240.418 20.174 243.503 19.284 247.3 19.284C251.098 19.284 254.124 20.174 256.378 21.954C258.752 23.6153 260.532 26.3447 261.718 30.142C263.024 33.9393 263.854 38.8047 264.21 44.738C264.685 50.6714 264.922 57.91 264.922 66.454C264.922 74.998 264.685 82.296 264.21 88.348C263.854 94.2814 263.024 99.1467 261.718 102.944C260.532 106.623 258.752 109.352 256.378 111.132C254.124 112.793 251.098 113.624 247.3 113.624C243.503 113.624 240.418 112.793 238.044 111.132C235.79 109.352 234.01 106.623 232.704 102.944C231.518 99.1467 230.687 94.2814 230.212 88.348C229.856 82.296 229.678 74.998 229.678 66.454ZM204.046 66.454C204.046 76.1847 204.462 85.0847 205.292 93.154C206.242 101.223 208.2 108.165 211.166 113.98C214.252 119.795 218.642 124.245 224.338 127.33C230.034 130.415 237.688 131.958 247.3 131.958C256.912 131.958 264.566 130.415 270.262 127.33C275.958 124.245 280.29 119.795 283.256 113.98C286.342 108.165 288.3 101.223 289.13 93.154C290.08 85.0847 290.554 76.1847 290.554 66.454C290.554 56.842 290.08 48.0014 289.13 39.932C288.3 31.744 286.342 24.7427 283.256 18.928C280.29 13.1134 275.958 8.60402 270.262 5.40001C264.566 2.07735 256.912 0.416016 247.3 0.416016C237.688 0.416016 230.034 2.07735 224.338 5.40001C218.642 8.60402 214.252 13.1134 211.166 18.928C208.2 24.7427 206.242 31.744 205.292 39.932C204.462 48.0014 204.046 56.842 204.046 66.454Z" fill="black"/>
<path d="M329.655 2.90801H304.023V91.552C304.023 100.096 305.15 107.038 307.405 112.378C309.659 117.718 312.685 121.871 316.483 124.838C320.28 127.686 324.611 129.585 329.477 130.534C334.342 131.483 339.385 131.958 344.607 131.958C349.828 131.958 354.871 131.424 359.737 130.356C364.602 129.288 368.933 127.211 372.731 124.126C376.528 121.041 379.554 116.887 381.809 111.666C384.063 106.326 385.191 99.6214 385.191 91.552V2.90801H359.559V91.552C359.559 94.756 359.321 97.7227 358.847 100.452C358.491 103.063 357.719 105.377 356.533 107.394C355.465 109.293 353.981 110.835 352.083 112.022C350.184 113.09 347.692 113.624 344.607 113.624C341.64 113.624 339.148 113.09 337.131 112.022C335.232 110.835 333.689 109.293 332.503 107.394C331.435 105.377 330.663 103.063 330.189 100.452C329.833 97.7227 329.655 94.756 329.655 91.552V2.90801Z" fill="black"/>
<path d="M475.808 2.90801H394.64V23.912H422.408V130H448.04V23.912H475.808V2.90801Z" fill="black"/>
<path d="M553.719 2.90801H528.087V91.552C528.087 100.096 529.214 107.038 531.469 112.378C533.724 117.718 536.75 121.871 540.547 124.838C544.344 127.686 548.676 129.585 553.541 130.534C558.406 131.483 563.45 131.958 568.671 131.958C573.892 131.958 578.936 131.424 583.801 130.356C588.666 129.288 592.998 127.211 596.795 124.126C600.592 121.041 603.618 116.887 605.873 111.666C608.128 106.326 609.255 99.6214 609.255 91.552V2.90801H583.623V91.552C583.623 94.756 583.386 97.7227 582.911 100.452C582.555 103.063 581.784 105.377 580.597 107.394C579.529 109.293 578.046 110.835 576.147 112.022C574.248 113.09 571.756 113.624 568.671 113.624C565.704 113.624 563.212 113.09 561.195 112.022C559.296 110.835 557.754 109.293 556.567 107.394C555.499 105.377 554.728 103.063 554.253 100.452C553.897 97.7227 553.719 94.756 553.719 91.552V2.90801Z" fill="black"/>
<path d="M646.116 90.306H620.484V95.468C620.484 107.216 623.57 116.235 629.74 122.524C636.03 128.813 646.413 131.958 660.89 131.958C674.774 131.958 685.573 128.932 693.286 122.88C701.118 116.709 705.034 106.919 705.034 93.51C705.034 89.594 704.678 86.034 703.966 82.83C703.254 79.626 701.949 76.7187 700.05 74.108C698.27 71.3787 695.838 68.8867 692.752 66.632C689.667 64.2587 685.692 62.004 680.826 59.868L661.068 51.324C655.61 49.0694 652.05 46.6367 650.388 44.026C648.727 41.2967 647.896 37.974 647.896 34.058C647.896 32.1594 648.074 30.32 648.43 28.54C648.905 26.76 649.676 25.2174 650.744 23.912C651.931 22.488 653.474 21.3607 655.372 20.53C657.271 19.6994 659.644 19.284 662.492 19.284C667.476 19.284 671.036 20.9453 673.172 24.268C675.308 27.472 676.376 32.1 676.376 38.152H700.94V34.592C700.94 28.54 699.932 23.378 697.914 19.106C696.016 14.7154 693.286 11.1554 689.726 8.42602C686.285 5.57802 682.132 3.56069 677.266 2.37402C672.52 1.06868 667.298 0.416016 661.602 0.416016C649.38 0.416016 639.768 3.50135 632.766 9.67201C625.765 15.8427 622.264 25.2174 622.264 37.796C622.264 43.0174 622.917 47.6454 624.222 51.68C625.528 55.596 627.545 59.0967 630.274 62.182C633.122 65.1487 636.623 67.7594 640.776 70.014C644.93 72.2687 649.854 74.3454 655.55 76.244C659.822 77.668 663.382 79.092 666.23 80.516C669.197 81.8214 671.57 83.3047 673.35 84.966C675.13 86.6274 676.376 88.526 677.088 90.662C677.919 92.6794 678.334 95.112 678.334 97.96C678.334 103.3 676.732 107.275 673.528 109.886C670.443 112.378 666.942 113.624 663.026 113.624C659.704 113.624 656.915 113.149 654.66 112.2C652.524 111.251 650.804 109.945 649.498 108.284C648.193 106.623 647.303 104.605 646.828 102.232C646.354 99.74 646.116 97.0107 646.116 94.044V90.306Z" fill="black"/>
</svg>
