<svg width="103" height="27" viewBox="0 0 103 27" fill="none" xmlns="http://www.w3.org/2000/svg">
<path fill-rule="evenodd" clip-rule="evenodd" d="M101.277 27H102.497V0H101.277V27ZM99.4473 27H100.058V0H99.4473V27ZM97.0064 27H98.8371V0H97.0064V27ZM93.956 27H95.1757V0H93.956V27ZM91.5158 27H92.126V0H91.5158V27ZM90.2953 27H90.9062V0H90.2953V27ZM87.2449 27H89.6851V0H87.2449V27ZM84.8047 27H86.6354V0H84.8047V27ZM82.974 27H84.1945V0H82.974V27ZM80.5338 27H82.3645V0H80.5338V27ZM78.0936 27H79.9243V0H78.0936V27ZM76.2636 27H77.4834V0H76.2636V27ZM73.8227 27H75.6534V0H73.8227V27ZM71.992 27H73.2125V0H71.992V27ZM68.9423 27H70.7723V0H68.9423V27ZM67.1116 27H67.7218V0H67.1116V27ZM64.6707 27H65.8912V0H64.6707V27ZM62.2312 27H63.451V0H62.2312V27ZM60.4005 27H61.621V0H60.4005V27ZM58.5698 27H59.7903V0H58.5698V27ZM55.5194 27H57.3494V0H55.5194V27ZM53.6894 27H54.3003V0H53.6894V27ZM51.2485 27H52.469V0H51.2485V27ZM49.4185 27H50.0288V0H49.4185V27ZM46.9776 27H48.8083V0H46.9776V27ZM45.1477 27H45.7579V0H45.1477V27ZM42.0972 27H43.9279V0H42.0972V27ZM40.2666 27H41.487V0H40.2666V27ZM37.827 27H39.0468V0H37.827V27ZM35.3861 27H36.6059V0H35.3861V27ZM33.5562 27H34.7759V0H33.5562V27ZM31.7255 27H32.3357V0H31.7255V27ZM28.675 27H30.5057V0H28.675V27ZM26.8444 27H28.0648V0H26.8444V27ZM24.4042 27H26.2348V0H24.4042V27ZM21.3537 27H23.7939V0H21.3537V27ZM20.1333 27H20.7442V0H20.1333V27ZM16.4726 27H17.6924V0H16.4726V27ZM14.6426 27H15.2529V0H14.6426V27ZM13.4229 27H14.0331V0H13.4229V27ZM10.9813 27H12.2017V0H10.9813V27ZM9.15199 27H10.3718V0H9.15199V27ZM6.71109 27H7.93085V0H6.71109V27ZM3.65997 27H5.49064V0H3.65997V27ZM1.83067 27H2.4409V0H1.83067V27ZM0 27H1.21976V0H0V27Z" fill="#020203"/>
</svg>
