<?xml version="1.0" encoding="utf-8"?>
<!-- Generator: Adobe Illustrator 24.2.0, SVG Export Plug-In . SVG Version: 6.00 Build 0)  -->
<svg version="1.1" id="Layer_1" xmlns="http://www.w3.org/2000/svg" xmlns:xlink="http://www.w3.org/1999/xlink" x="0px" y="0px"
	 viewBox="0 0 72 72" style="enable-background:new 0 0 72 72;" xml:space="preserve">
<style type="text/css">
	.st0{fill-rule:evenodd;clip-rule:evenodd;}
</style>
<path d="M46.2,28.4h-4.3c-0.4,0-0.6,0.2-0.6,0.5v0.1c0,0.2,0.1,0.4,0.3,0.6l0,0c0,0,0,0,0.1,0.1c0.1,0.1,0.4,0.5,0.2,1l0,0l-3.4,7.3
	l-3.2-6.6c0,0,0-0.1,0-0.1l-0.1-0.3h0L35,30.7l0,0c-0.2-0.5,0.1-0.8,0.2-1c0,0,0,0,0.1-0.1l0,0c0.2-0.2,0.3-0.4,0.3-0.6V29
	c0-0.3-0.3-0.5-0.6-0.5H28c-0.4,0-0.6,0.2-0.6,0.5v0.1c0,0.2,0.1,0.4,0.2,0.5l7.9,15.8c0,0.1,0.1,0.1,0.1,0.2l0,0c0,0,0,0,0,0
	c0.4,0.7,0.9,1.1,1.8,1.1c1,0,1.7-0.4,2.1-1.4l7.3-15.7c0.1-0.1,0.1-0.3,0.1-0.5V29C46.9,28.6,46.6,28.4,46.2,28.4z"/>
<path class="st0" d="M23.5,32l-0.2-1.9L23.1,32c-0.6,5.6-1,6.1-5.7,6.8L16,39l1.3,0.2c4.7,0.7,5.1,1.2,5.7,6.8l0.2,1.9l0.2-1.9
	c0.6-5.6,1-6.1,5.7-6.8l1.3-0.2l-1.3-0.2C24.5,38.1,24.1,37.6,23.5,32z"/>
<path class="st0" d="M45.8,26c3.3,0.5,3.6,0.8,4,4.5l0.1,1.2l0.1-1.2c0.4-3.7,0.7-4.1,4-4.5l0.9-0.1l-0.9-0.1
	c-3.3-0.5-3.6-0.8-4-4.5L50,20l-0.1,1.2c-0.4,3.7-0.7,4.1-4,4.5l-0.9,0.1L45.8,26z"/>
</svg>
