<svg width="72" height="72" viewBox="0 0 72 72" fill="none" xmlns="http://www.w3.org/2000/svg">
<path fill-rule="evenodd" clip-rule="evenodd" d="M54.5822 6.66436L53.1007 5.85016L49.1639 10.522L49.1349 10.5054L51.0142 4.70447L49.483 3.86334L47.2141 11.8583L49.0541 12.8672L54.5822 6.66436Z" fill="black"/>
<path fill-rule="evenodd" clip-rule="evenodd" d="M52.2076 15.1089L57.1598 8.69883L55.8668 7.70024L50.9168 14.1103L52.2076 15.1089Z" fill="black"/>
<path fill-rule="evenodd" clip-rule="evenodd" d="M62.8681 37.9272C62.9531 37.8112 63.0608 37.7242 63.1934 37.6641C63.3261 37.6061 63.4773 37.573 63.6493 37.5647C63.8213 37.5564 64.0077 37.5626 64.2129 37.5833L69.8301 38.1758L70.0021 36.5516L64.3849 35.9591C63.8441 35.901 63.3965 35.9259 63.0422 36.0336C62.6879 36.1414 62.4061 36.305 62.1968 36.5267C61.9875 36.7484 61.8363 37.0094 61.743 37.3119C61.6498 37.6144 61.5856 37.9293 61.5524 38.2608C61.5172 38.5923 61.5172 38.9155 61.5524 39.2304C61.5876 39.5453 61.6892 39.8332 61.8611 40.0943C62.031 40.3553 62.2755 40.5749 62.5967 40.7531C62.9158 40.9313 63.3323 41.0473 63.8441 41.1012L69.4613 41.6937L69.6332 40.0694L64.014 39.4769C63.8109 39.4562 63.6265 39.423 63.4587 39.3795C63.2929 39.336 63.1499 39.2718 63.0339 39.1869C62.9179 39.1019 62.8288 38.9963 62.7708 38.8678C62.7127 38.7394 62.692 38.5778 62.7127 38.383C62.7314 38.1945 62.7832 38.0432 62.8681 37.9272Z" fill="black"/>
<path fill-rule="evenodd" clip-rule="evenodd" d="M55.8047 12.7243C55.353 13.149 54.9593 13.5592 54.6236 13.9507C54.2879 14.3444 54.0517 14.738 53.9129 15.1316C53.7762 15.5253 53.7596 15.9231 53.8653 16.3208C53.9709 16.7207 54.2341 17.1433 54.6526 17.5888C55.0194 17.9803 55.3799 18.2414 55.7321 18.3719C56.0844 18.5024 56.4304 18.5355 56.7723 18.4693C57.1142 18.403 57.4519 18.2579 57.7855 18.0383C58.1191 17.8187 58.4444 17.5577 58.7635 17.2573L57.6446 16.0681C57.3255 16.3685 57.0499 16.5922 56.8179 16.7373C56.5858 16.8823 56.3848 16.9734 56.2149 17.0087C56.045 17.0439 55.9 17.0314 55.7777 16.9755C55.6575 16.9175 55.5457 16.8367 55.4483 16.7331C55.3302 16.6067 55.2494 16.47 55.2121 16.325C55.1748 16.18 55.1996 16.0039 55.2929 15.7988C55.384 15.5936 55.5539 15.345 55.8005 15.055C56.0471 14.7649 56.3931 14.4107 56.8407 13.9922C57.2592 13.5985 57.6239 13.2774 57.9347 13.0267C58.2434 12.7761 58.5148 12.5958 58.7469 12.4819C58.9769 12.3679 59.1779 12.3223 59.3499 12.3431C59.5198 12.3638 59.6752 12.4487 59.8161 12.5979C60.0689 12.8672 60.1476 13.1448 60.0481 13.4307C59.9487 13.7166 59.6835 14.0605 59.2546 14.4645L60.3734 15.6537C60.5889 15.4507 60.8044 15.2207 61.0199 14.9597C61.2375 14.6986 61.3929 14.4086 61.4923 14.0875C61.5897 13.7664 61.5939 13.4183 61.5006 13.0454C61.4074 12.6704 61.1608 12.2705 60.763 11.8479C60.3444 11.4004 59.9342 11.1166 59.5343 10.9964C59.1344 10.8742 58.7324 10.87 58.3304 10.984C57.9285 11.0979 57.5182 11.3113 57.1038 11.6242C56.6832 11.9391 56.2501 12.3058 55.8047 12.7243Z" fill="black"/>
<path d="M63.5389 15.4771L56.8357 20.0236L57.7524 21.3747L64.4555 16.8282L63.5389 15.4771Z" fill="black"/>
<path fill-rule="evenodd" clip-rule="evenodd" d="M61.9274 20.2406C61.3639 20.5017 60.8604 20.7648 60.419 21.032C59.9756 21.2993 59.6275 21.5976 59.3706 21.9291C59.1137 22.2585 58.9748 22.6314 58.9479 23.0416C58.921 23.4539 59.037 23.9387 59.2939 24.4939C59.5508 25.0492 59.8451 25.4511 60.1745 25.6976C60.506 25.9442 60.879 26.0788 61.2976 26.0975C61.714 26.1182 62.1678 26.0457 62.6589 25.882C63.1499 25.7183 63.6762 25.505 64.2398 25.246C64.7951 24.9891 65.2965 24.726 65.7441 24.4566C66.1916 24.1873 66.5418 23.889 66.7967 23.5575C67.0515 23.2281 67.1986 22.8531 67.2359 22.4367C67.2732 22.0202 67.1634 21.5334 66.9065 20.9782C66.6496 20.4229 66.3512 20.0231 66.0093 19.7807C65.6674 19.5383 65.2882 19.4078 64.8718 19.387C64.4553 19.3663 63.9995 19.4409 63.5042 19.6066C63.007 19.7724 62.4827 19.9837 61.9274 20.2406ZM64.7951 20.9326C65.0479 20.9036 65.2551 20.9326 65.4167 21.0196C65.5783 21.1087 65.7089 21.262 65.8104 21.4816C65.9119 21.7012 65.943 21.9001 65.9057 22.0803C65.8684 22.2606 65.7565 22.4367 65.57 22.6107C65.3836 22.7847 65.1246 22.9629 64.793 23.1452C64.4615 23.3275 64.0471 23.5326 63.554 23.7605C63.0588 23.9884 62.634 24.1707 62.2755 24.3075C61.9171 24.4442 61.6146 24.525 61.3639 24.554C61.1152 24.583 60.908 24.5519 60.7464 24.4649C60.5848 24.3779 60.4542 24.2225 60.3527 24.0029C60.2512 23.7833 60.2201 23.5844 60.2574 23.4042C60.2947 23.2239 60.4066 23.0478 60.5889 22.8759C60.7713 22.7039 61.0323 22.5258 61.368 22.3414C61.7037 22.157 62.1181 21.9519 62.6133 21.7219C63.1085 21.494 63.5312 21.3117 63.8855 21.177C64.2398 21.0445 64.5423 20.9616 64.7951 20.9326Z" fill="black"/>
<path fill-rule="evenodd" clip-rule="evenodd" d="M61.6726 32.6712C61.7265 33.1435 61.8342 33.533 61.9979 33.8396C62.1616 34.1442 62.3626 34.3845 62.5988 34.5606C62.835 34.7346 63.1002 34.8486 63.3965 34.8983C63.6907 34.948 63.9974 34.9563 64.3123 34.9211C64.8531 34.861 65.2717 34.6808 65.5638 34.3804C65.8581 34.08 66.0093 33.7029 66.0176 33.2451L66.0404 33.243C66.1979 33.6366 66.4444 33.9163 66.7801 34.0841C67.1158 34.2519 67.4991 34.312 67.9363 34.2623C68.3196 34.2188 68.6366 34.1255 68.8873 33.9847C69.138 33.8417 69.3307 33.6615 69.4654 33.4398C69.6001 33.2202 69.6851 32.9654 69.7224 32.6753C69.7576 32.3853 69.7576 32.0766 69.7203 31.7451L69.4157 29.029L61.3659 29.9323L61.6726 32.6712ZM68.4025 30.7859L68.4688 31.3722C68.5144 31.7782 68.4688 32.0828 68.332 32.29C68.1953 32.4951 67.9342 32.6194 67.553 32.6629C67.1696 32.7064 66.8858 32.6339 66.7014 32.4454C66.5169 32.2568 66.3988 31.9378 66.3491 31.4861L66.2973 31.0241L68.4025 30.7859ZM65.1681 31.1484L65.2468 31.8466C65.2675 32.0269 65.2675 32.1947 65.2468 32.348C65.2261 32.5034 65.1743 32.6401 65.0935 32.7582C65.0127 32.8784 64.8966 32.9778 64.7495 33.0586C64.6024 33.1394 64.4118 33.1933 64.1797 33.2202C63.7135 33.272 63.3799 33.1891 63.181 32.9674C62.98 32.7458 62.8598 32.4412 62.8163 32.0496L62.7459 31.4178L65.1681 31.1484Z" fill="black"/>
<path fill-rule="evenodd" clip-rule="evenodd" d="M60.7485 43.0051L63.9953 44.1011L63.7156 44.9277C63.6058 45.2509 63.4442 45.4498 63.2245 45.5285C63.007 45.6072 62.7438 45.601 62.4392 45.514L60.9515 45.0603C60.7982 45.0168 60.649 44.9816 60.5019 44.9567C60.3548 44.9319 60.2139 44.9401 60.0813 44.9816L59.5156 46.6576L59.5799 46.6804C59.7062 46.5623 59.8844 46.5209 60.1144 46.5499C60.3382 46.5934 60.6573 46.6783 61.0717 46.8006C61.281 46.8627 61.4716 46.9207 61.6436 46.9705C61.8135 47.0202 61.973 47.0616 62.1222 47.0968C62.5677 47.1984 62.9158 47.1921 63.1707 47.0803C63.4255 46.9663 63.6451 46.726 63.8337 46.3572L63.8544 46.3634C63.8005 46.8317 63.9 47.2253 64.1569 47.5423C64.4118 47.8593 64.7993 48.1058 65.3152 48.2798C65.9824 48.5056 66.5377 48.4932 66.9852 48.2446C67.4328 47.996 67.7643 47.5506 67.9819 46.9042L68.9474 44.0451L61.2727 41.4554L60.7485 43.0051ZM64.8511 45.108L65.0686 44.4636L67.2836 45.2115L67.037 45.9429C66.7946 46.6597 66.3201 46.898 65.6094 46.6576C65.1929 46.5168 64.9319 46.3179 64.8241 46.0568C64.7164 45.7958 64.7247 45.4809 64.8511 45.108Z" fill="black"/>
<path fill-rule="evenodd" clip-rule="evenodd" d="M64.3434 50.1506C63.9497 49.8088 63.4628 49.4587 62.8826 49.1044C62.2838 48.7377 61.7389 48.4393 61.254 48.2135C60.7671 47.9877 60.3237 47.8551 59.9217 47.8157C59.5198 47.7785 59.1613 47.8468 58.8505 48.025C58.5376 48.2011 58.2517 48.5036 57.9906 48.9283C57.7896 49.2577 57.6736 49.5747 57.6405 49.8792C57.6094 50.1838 57.6778 50.5028 57.8456 50.8364L57.8332 50.855L57.195 50.4635L56.5672 51.489L60.2926 53.77L61.6726 51.5159L60.6469 50.8882L60.0834 51.808L59.3768 51.375C59.1903 51.2611 59.0453 51.1326 58.9417 50.9897C58.8381 50.8467 58.7676 50.7038 58.7303 50.5608C58.693 50.4179 58.6827 50.2832 58.6993 50.1568C58.7158 50.0284 58.749 49.9227 58.8008 49.8399C58.923 49.641 59.0847 49.5146 59.2877 49.4669C59.4908 49.4172 59.7311 49.4317 60.0067 49.5084C60.2843 49.585 60.5972 49.7135 60.9495 49.8917C61.2996 50.0719 61.683 50.2874 62.0953 50.5401C62.9593 51.0684 63.5333 51.5221 63.8171 51.8992C64.101 52.2762 64.1404 52.6326 63.9332 52.9682C63.8461 53.1091 63.7342 53.2085 63.5996 53.2624C63.4649 53.3163 63.3198 53.3411 63.1686 53.337C63.0153 53.3328 62.864 53.3038 62.7107 53.25C62.5573 53.1961 62.4164 53.1298 62.288 53.0511L61.4716 54.3853C62.174 54.8162 62.8184 54.9778 63.4007 54.8742C63.9829 54.7706 64.5071 54.3377 64.9733 53.5773C65.2468 53.1319 65.3981 52.7155 65.4312 52.328C65.4644 51.9406 65.3898 51.5656 65.2074 51.2072C65.0251 50.8447 64.7371 50.4945 64.3434 50.1506Z" fill="black"/>
<path fill-rule="evenodd" clip-rule="evenodd" d="M52.9391 55.359L53.9108 56.2768L55.9746 54.0911L57.5597 55.5849L55.6907 57.5655L56.6645 58.4832L58.5335 56.5047L59.9197 57.812L57.9326 59.9148L58.9065 60.8347L62.0145 57.5427L56.1217 51.9841L52.9391 55.359Z" fill="black"/>
<path fill-rule="evenodd" clip-rule="evenodd" d="M51.2752 56.5834L53.2312 59.3969L52.5143 59.8962C52.2346 60.0909 51.9839 60.1531 51.7622 60.0868C51.5405 60.0205 51.3333 59.861 51.1385 59.6082L50.2144 58.3589C50.117 58.2326 50.0175 58.1145 49.9139 58.0067C49.8124 57.899 49.6943 57.8223 49.5596 57.7768L48.1071 58.7878L48.1465 58.8437C48.3185 58.8251 48.4863 58.8976 48.6542 59.0571C48.8075 59.227 49.0147 59.4839 49.2737 59.8278C49.4063 60.0039 49.5244 60.1614 49.6321 60.3043C49.7399 60.4452 49.8435 60.5736 49.9409 60.6897C50.2372 61.0357 50.521 61.2387 50.7925 61.2988C51.0639 61.3588 51.3851 61.2967 51.756 61.1123L51.7684 61.1309C51.4451 61.4749 51.2918 61.8499 51.3084 62.258C51.325 62.6661 51.4887 63.0929 51.7995 63.5404C52.2014 64.1184 52.6552 64.4396 53.1608 64.5058C53.6684 64.5721 54.2009 64.4126 54.7604 64.0231L57.2385 62.3015L52.6158 55.6511L51.2752 56.5834ZM53.8777 60.3271L55.2121 62.2456L54.578 62.6848C53.9564 63.1157 53.4322 63.0245 53.0054 62.4092C52.7547 62.0487 52.6635 61.7318 52.7319 61.4604C52.8002 61.1869 52.995 60.9383 53.3182 60.7145L53.8777 60.3271Z" fill="black"/>
<path fill-rule="evenodd" clip-rule="evenodd" d="M46.7417 63.8408C46.5635 63.2462 46.3749 62.7117 46.1719 62.2352C45.9709 61.7587 45.7243 61.3713 45.4322 61.0709C45.1421 60.7705 44.794 60.5799 44.39 60.4949C43.9859 60.41 43.4907 60.4576 42.9043 60.6317C42.3905 60.785 41.9947 60.9901 41.7212 61.247C41.4477 61.5018 41.2633 61.7981 41.1701 62.1337C41.0768 62.4693 41.054 62.836 41.1017 63.2317C41.1493 63.6274 41.2364 64.0356 41.3628 64.4561L42.9271 63.9879C42.8007 63.5673 42.7261 63.2214 42.6992 62.95C42.6723 62.6786 42.6826 62.459 42.7261 62.2911C42.7717 62.1233 42.8463 61.999 42.952 61.9162C43.0577 61.8333 43.1799 61.7711 43.3167 61.7297C43.4845 61.68 43.6399 61.6696 43.7891 61.7007C43.9362 61.7318 44.0812 61.8333 44.2242 62.0094C44.3672 62.1834 44.5122 62.4465 44.6614 62.7966C44.8106 63.1468 44.9722 63.615 45.1483 64.2013C45.312 64.7524 45.4384 65.2206 45.5233 65.6101C45.6083 65.9996 45.6497 66.3228 45.6477 66.5797C45.6456 66.8366 45.5979 67.0375 45.5026 67.1805C45.4073 67.3234 45.2623 67.425 45.0654 67.483C44.7111 67.5886 44.4273 67.5348 44.2159 67.3172C44.0046 67.0997 43.8139 66.7081 43.6461 66.1446L42.0817 66.6128C42.1667 66.8946 42.2765 67.1909 42.4133 67.5016C42.55 67.8124 42.7386 68.0817 42.9831 68.3138C43.2255 68.5437 43.5363 68.7032 43.9134 68.7882C44.2905 68.8731 44.7567 68.8317 45.3141 68.6639C45.9005 68.4878 46.3376 68.2495 46.6257 67.945C46.9137 67.6404 47.096 67.2841 47.1747 66.8739C47.2535 66.4637 47.2452 66.0017 47.1499 65.4899C47.0525 64.9761 46.9178 64.4271 46.7417 63.8408Z" fill="black"/>
<path fill-rule="evenodd" clip-rule="evenodd" d="M35.4078 61.941L35.528 63.2732L38.4101 63.0121L39.0172 69.7474L40.6438 69.6003L39.9165 61.5329L35.4078 61.941Z" fill="black"/>
<path fill-rule="evenodd" clip-rule="evenodd" d="M34.3262 62.1958C34.1066 61.9845 33.8455 61.8333 33.543 61.7401C33.2425 61.6468 32.9255 61.5826 32.594 61.5453C32.2625 61.5101 31.9393 61.508 31.6243 61.5432C31.3094 61.5764 31.0193 61.6779 30.7582 61.8478C30.4971 62.0177 30.2754 62.2621 30.0972 62.5812C29.917 62.9002 29.8009 63.3146 29.745 63.8263L29.1338 69.4429L30.7582 69.619L31.3694 64.0024C31.3922 63.7994 31.4254 63.615 31.4689 63.4493C31.5145 63.2835 31.5787 63.1426 31.6637 63.0245C31.7486 62.9085 31.8543 62.8215 31.9828 62.7635C32.1112 62.7055 32.2728 62.6868 32.4676 62.7076C32.6562 62.7283 32.8074 62.7801 32.9235 62.865C33.0395 62.95 33.1265 63.0577 33.1845 63.1903C33.2425 63.3229 33.2757 63.4741 33.284 63.6461C33.2923 63.818 33.284 64.0045 33.2633 64.2096L32.652 69.8261L34.2765 70.0022L34.8877 64.3857C34.9457 63.845 34.9229 63.3975 34.8173 63.0432C34.7116 62.6889 34.5479 62.4072 34.3262 62.1958Z" fill="black"/>
<path fill-rule="evenodd" clip-rule="evenodd" d="M9.13885 37.1669L7.41909 36.8209L7.38386 34.6663L9.0912 34.2644L9.06426 32.5634L1 34.8362L1.03315 36.8541L9.16579 38.8657L9.13885 37.1669ZM2.42347 35.8348V35.812L6.05156 34.9708L6.07642 36.5578L2.42347 35.8348Z" fill="black"/>
<path fill-rule="evenodd" clip-rule="evenodd" d="M30.0786 7.15744C30.1843 7.66502 30.35 8.09387 30.5759 8.444C30.8038 8.79413 31.1063 9.05103 31.4855 9.21262C31.8647 9.37422 32.3599 9.42602 32.969 9.36801C33.5782 9.31 34.0548 9.16705 34.3987 8.93708C34.7406 8.70711 34.9913 8.39842 35.1488 8.011C35.3063 7.62358 35.3891 7.17194 35.3974 6.654C35.4057 6.13606 35.3809 5.57047 35.3228 4.95308C35.2648 4.34399 35.184 3.78254 35.0783 3.27288C34.9727 2.76323 34.8069 2.33231 34.5811 1.98011C34.3552 1.62998 34.0506 1.36686 33.6694 1.19491C33.2881 1.02088 32.7929 0.964943 32.1837 1.02088C31.5746 1.07889 31.098 1.22806 30.7561 1.46838C30.4143 1.71078 30.1635 2.02361 30.0081 2.41103C29.8507 2.79845 29.7678 3.25217 29.7616 3.77218C29.7533 4.29426 29.7781 4.85778 29.8362 5.46895C29.8921 6.08841 29.975 6.64986 30.0786 7.15744ZM31.442 2.99527C31.4979 2.74666 31.5953 2.5602 31.732 2.43797C31.8688 2.31573 32.0574 2.24115 32.2977 2.22043C32.5381 2.19764 32.737 2.23493 32.8944 2.33023C33.0519 2.42553 33.1804 2.5892 33.2819 2.82331C33.3834 3.05742 33.4663 3.3599 33.5264 3.73489C33.5886 4.10988 33.6445 4.56774 33.6963 5.10847C33.7481 5.65127 33.7771 6.11327 33.7875 6.49655C33.7958 6.87982 33.773 7.19266 33.717 7.43713C33.6611 7.68159 33.5637 7.86598 33.427 7.98821C33.2902 8.11252 33.1016 8.18503 32.8613 8.20782C32.6209 8.23061 32.422 8.19332 32.2646 8.09802C32.1071 8.00272 31.9786 7.84112 31.8771 7.61115C31.7756 7.38119 31.6948 7.07871 31.6326 6.69958C31.5704 6.32252 31.5145 5.86259 31.4627 5.31978C31.4109 4.77698 31.3819 4.31705 31.3715 3.93792C31.3612 3.55672 31.384 3.24388 31.442 2.99527Z" fill="black"/>
<path fill-rule="evenodd" clip-rule="evenodd" d="M26.7924 60.3644C26.3407 60.2111 25.9429 60.1427 25.5968 60.1614C25.2508 60.18 24.9483 60.2587 24.6893 60.3975C24.4303 60.5364 24.2148 60.729 24.0428 60.9735C23.8708 61.218 23.7341 61.4914 23.6326 61.7918C23.4564 62.3077 23.4419 62.7614 23.587 63.1551C23.732 63.5487 24.0097 63.847 24.4199 64.0501L24.4116 64.0708C23.989 64.0459 23.6305 64.1495 23.3342 64.3815C23.04 64.6115 22.8224 64.9347 22.6794 65.3511C22.5551 65.7158 22.5033 66.041 22.5261 66.329C22.5489 66.617 22.6297 66.8677 22.7727 67.0831C22.9136 67.2986 23.1083 67.485 23.3549 67.6425C23.6015 67.7979 23.8812 67.9305 24.1961 68.0382L26.7841 68.9208L29.399 61.2553L26.7924 60.3644ZM25.6279 67.2551L25.0685 67.0645C24.6831 66.9319 24.4241 66.762 24.2977 66.5486C24.1692 66.3373 24.1692 66.0493 24.2935 65.6847C24.4179 65.3201 24.6043 65.0942 24.855 65.0072C25.1037 64.9202 25.4435 64.9513 25.8724 65.0963L26.3117 65.2455L25.6279 67.2551ZM26.6784 64.1744L26.0133 63.9465C25.8413 63.8885 25.6901 63.816 25.5595 63.731C25.429 63.6461 25.3254 63.5404 25.2529 63.4161C25.1804 63.2918 25.1368 63.1447 25.1265 62.9769C25.1161 62.8091 25.1472 62.6143 25.2239 62.3927C25.3751 61.9493 25.5948 61.6841 25.8786 61.5971C26.1646 61.5101 26.4919 61.5308 26.8649 61.6572L27.4658 61.8623L26.6784 64.1744Z" fill="black"/>
<path fill-rule="evenodd" clip-rule="evenodd" d="M20.508 56.6062C20.1702 56.4363 19.7828 56.3514 19.3601 56.3514C19.358 56.3514 19.3559 56.3514 19.3518 56.3514C18.9581 56.3514 18.5686 56.4343 18.1915 56.5938C17.7315 56.7906 17.3254 57.1035 16.9151 57.5779C16.1112 58.5081 15.3093 59.4404 14.5074 60.3748C14.4453 60.4473 14.3914 60.526 14.3396 60.6006L14.3272 60.6192C14.122 60.9134 14.1676 61.2718 14.3189 61.4728C14.524 61.7463 14.8535 61.8416 15.1808 61.7152C15.3197 61.6613 15.4378 61.5764 15.5414 61.4542C15.7859 61.1662 16.0304 60.8823 16.279 60.5985L16.3018 60.5695C16.3246 60.5405 16.3349 60.5281 16.3474 60.5219C16.3536 60.5301 16.3598 60.5384 16.364 60.5467C16.4883 60.7788 16.7038 60.8969 17.0063 60.8969C17.0125 60.8969 17.0187 60.8968 17.027 60.8989C17.0601 61.1869 17.2135 61.3941 17.4828 61.5122C17.4538 61.5495 17.4269 61.5805 17.4 61.6137L16.8695 62.229C16.5981 62.5439 16.3246 62.8609 16.0552 63.1758C15.9951 63.2442 15.9392 63.3229 15.8853 63.4058C15.6905 63.7103 15.7071 64.0832 15.9288 64.338C16.0594 64.4893 16.2686 64.5577 16.4655 64.5577C16.5857 64.5577 16.6996 64.5328 16.7908 64.4851C16.913 64.423 17.0187 64.336 17.1285 64.2075L19.3476 61.6303C19.4699 61.4873 19.5942 61.3443 19.7165 61.2035C19.7206 61.1993 19.7248 61.1931 19.7289 61.1869L19.7268 61.2242C19.7227 61.3526 19.7165 61.4832 19.7102 61.6137C19.6895 61.9514 19.7848 62.2103 20.0065 62.4072C20.2282 62.604 20.51 62.6703 20.8706 62.5978C21.0985 62.5563 21.2684 62.3968 21.3368 62.1648C21.3575 62.0943 21.3741 62.0218 21.3886 61.9493L21.4818 61.4811C21.5875 60.9611 21.6911 60.4411 21.7926 59.9231L21.8237 59.7657C21.8631 59.5771 21.9045 59.3845 21.9149 59.1918C21.9584 58.4397 21.7657 57.7934 21.3409 57.2692C21.1151 56.9916 20.8416 56.774 20.508 56.6062ZM19.9734 60.2608C19.934 60.2753 19.8884 60.2919 19.8491 60.3209C19.8076 60.352 19.7745 60.3913 19.7455 60.4286L19.7185 60.4618C18.7385 61.5992 17.7584 62.7366 16.7784 63.874L16.7639 63.8926C16.7058 63.961 16.6561 64.0211 16.5753 64.0397C16.4593 64.0708 16.3536 64.0397 16.2935 63.9589C16.2313 63.876 16.2458 63.731 16.3018 63.6564C16.3308 63.6191 16.364 63.5818 16.395 63.5446L17.1824 62.6288C17.6548 62.0798 18.1272 61.5329 18.5976 60.9818C18.6411 60.93 18.6825 60.872 18.724 60.8119L18.8131 60.6876L18.7882 60.6462C18.7799 60.6296 18.7716 60.6151 18.7633 60.5985C18.7447 60.5612 18.724 60.5219 18.6929 60.4908C18.6494 60.4473 18.5997 60.4245 18.5458 60.4245C18.4981 60.4245 18.4484 60.4431 18.4049 60.4784C18.3572 60.5177 18.3034 60.5654 18.2536 60.6192C18.2122 60.6648 18.1728 60.7125 18.1314 60.758C18.0816 60.816 18.0319 60.8761 17.9801 60.9321C17.8599 61.0584 17.7253 61.0792 17.6134 60.9839C17.4994 60.8865 17.4953 60.7311 17.603 60.5944C17.6175 60.5757 17.6341 60.5571 17.6507 60.5384L17.8724 60.2815C17.9822 60.1531 18.0257 60.064 18.0174 59.9791C18.0133 59.9231 17.9843 59.8734 17.9325 59.8299C17.7646 59.6932 17.6217 59.8299 17.4994 59.9728L17.4352 60.0474C17.3896 60.1013 17.3419 60.1572 17.2943 60.209C17.2549 60.2525 17.2135 60.2878 17.1741 60.3168C17.0498 60.4079 16.9441 60.4079 16.8426 60.3147C16.7493 60.2297 16.739 60.1262 16.8115 59.9998C16.8426 59.9459 16.8799 59.89 16.9275 59.832C16.9648 59.7864 17.0042 59.7408 17.0436 59.6952C17.0954 59.6351 17.1492 59.5751 17.1969 59.5108C17.286 59.3969 17.2736 59.256 17.17 59.1711C17.0726 59.0903 16.9358 59.1027 16.8322 59.2021C16.8032 59.2312 16.7784 59.2622 16.7514 59.2912L15.2471 61.0398L15.2223 61.0688C15.1974 61.0999 15.1725 61.1289 15.1456 61.1558C15.0586 61.247 14.955 61.2739 14.839 61.2428C14.7478 61.2138 14.6981 61.1455 14.6856 61.0315C14.6794 60.9714 14.7063 60.9134 14.7499 60.843C14.7685 60.814 14.7934 60.787 14.8162 60.7601L17.3419 57.8265C17.5844 57.5447 17.8123 57.3479 18.063 57.2008C18.7115 56.8258 19.3601 56.7409 19.9879 56.9439C20.8519 57.2257 21.3347 57.8721 21.4197 58.8686C21.4424 59.1255 21.3969 59.3845 21.3513 59.6061C21.2498 60.1013 21.1482 60.5944 21.0488 61.0875L20.8871 61.8789C20.8768 61.9265 20.8644 61.9742 20.854 62.0177L20.8436 62.055C20.6882 62.1233 20.5183 62.1171 20.3899 62.0363C20.2655 61.9576 20.2013 61.8229 20.2075 61.6593C20.2137 61.5101 20.22 61.3609 20.2283 61.2138C20.2345 61.0771 20.2407 60.9404 20.2469 60.8036C20.251 60.7145 20.251 60.6234 20.251 60.5322V60.381C20.2469 60.3623 20.2365 60.3126 20.193 60.2712C20.1412 60.2318 19.9879 60.2567 19.9734 60.2608Z" fill="black"/>
<path fill-rule="evenodd" clip-rule="evenodd" d="M14.899 55.5662C15.2741 55.1829 15.5455 54.8059 15.7154 54.4392C15.8853 54.0725 15.9371 53.712 15.8729 53.3598C15.8087 53.0076 15.6201 52.6367 15.3031 52.2514C15.0586 51.9531 14.7996 51.7376 14.5219 51.6071C14.2443 51.4765 13.9211 51.4351 13.5502 51.4848L13.5357 51.4662L14.1158 50.9938L13.3554 50.0615L9.9718 52.8232L11.6439 54.8701L12.5763 54.1098L11.8946 53.2748L12.537 52.7507C12.7069 52.6119 12.8768 52.5186 13.0446 52.4668C13.2145 52.4171 13.372 52.3985 13.517 52.4088C13.6641 52.4213 13.7947 52.4565 13.9107 52.5124C14.0267 52.5704 14.1138 52.6367 14.1759 52.7134C14.3251 52.8957 14.3873 53.0905 14.3665 53.2976C14.3458 53.5048 14.2526 53.7265 14.0889 53.9627C13.9252 54.1988 13.7014 54.4537 13.4155 54.7251C13.1295 54.9965 12.8001 55.2865 12.4251 55.5931C11.6398 56.2333 11.0223 56.6249 10.5727 56.7678C10.1231 56.9108 9.77289 56.83 9.52425 56.5254C9.41858 56.397 9.36263 56.2602 9.35642 56.1131C9.3502 55.9681 9.37299 55.8231 9.42894 55.6802C9.48281 55.5372 9.56155 55.4025 9.66307 55.2762C9.7646 55.1498 9.87442 55.0379 9.99045 54.9426L9.00003 53.7306C8.36185 54.2506 7.99511 54.8038 7.90187 55.388C7.80862 55.9723 8.04276 56.6104 8.60635 57.3023C8.9358 57.7063 9.27768 57.9881 9.63407 58.1476C9.98838 58.3071 10.3676 58.361 10.7675 58.3071C11.1674 58.2533 11.5942 58.0979 12.048 57.841C12.5017 57.5841 12.9928 57.2402 13.5191 56.8093C14.064 56.3638 14.524 55.9495 14.899 55.5662Z" fill="black"/>
<path fill-rule="evenodd" clip-rule="evenodd" d="M12.5079 48.4994L10.8068 48.9283L9.84541 46.9995L11.2129 45.9014L10.4546 44.3787L4.15774 49.9062L5.057 51.7148L13.2642 50.0263L12.5079 48.4994ZM5.87337 50.1921L5.86301 50.1713L8.77418 47.8489L9.48281 49.2701L5.87337 50.1921Z" fill="black"/>
<path fill-rule="evenodd" clip-rule="evenodd" d="M10.1065 42.7648L4.58872 44.0783L4.58458 44.0555L9.63821 40.8008L9.20723 38.99L1.32738 40.8671L1.67548 42.3235L7.07099 41.039L7.0772 41.0597L2.13753 44.2648L2.57473 46.0983L10.4546 44.2212L10.1065 42.7648Z" fill="black"/>
<path fill-rule="evenodd" clip-rule="evenodd" d="M3.39317 31.3722C3.71848 31.4405 4.01477 31.4592 4.27999 31.4302C4.54521 31.4012 4.78971 31.3183 5.01556 31.1836C5.2414 31.049 5.45068 30.8667 5.64545 30.6367C5.84022 30.4067 6.03498 30.1271 6.22768 29.7956C6.37272 29.547 6.50533 29.3419 6.62965 29.1782C6.75397 29.0145 6.87829 28.8881 7.00468 28.7991C7.13108 28.71 7.26576 28.654 7.40458 28.6333C7.54341 28.6126 7.70295 28.6209 7.88115 28.6582C8.21474 28.7286 8.44059 28.8778 8.55869 29.1077C8.6768 29.3377 8.70995 29.5739 8.65815 29.8184C8.61464 30.0255 8.54833 30.1913 8.46131 30.3156C8.37428 30.4399 8.26861 30.5331 8.14843 30.5911C8.02826 30.6512 7.88736 30.6802 7.72989 30.6781C7.57242 30.6761 7.40044 30.6553 7.21603 30.616L6.98189 30.5663L6.64623 32.1657L6.96739 32.234C7.70088 32.3873 8.30383 32.3107 8.77625 32.0041C9.25074 31.6974 9.58019 31.0925 9.77082 30.1892C9.95108 29.3232 9.90343 28.6085 9.62371 28.0429C9.34398 27.4793 8.78661 27.1085 7.94952 26.9324C7.70502 26.8806 7.47918 26.8578 7.2699 26.8599C7.06063 26.862 6.86172 26.9034 6.67109 26.9842C6.48047 27.065 6.29191 27.1851 6.1075 27.3467C5.9231 27.5083 5.73247 27.728 5.53563 28.0035L4.74412 29.1243C4.53278 29.4351 4.33179 29.6257 4.14324 29.6941C3.95469 29.7624 3.7392 29.7707 3.4947 29.721C3.3766 29.6961 3.26471 29.6588 3.15903 29.6091C3.05336 29.5594 2.96634 29.491 2.89589 29.404C2.82544 29.3149 2.77778 29.2072 2.74878 29.0767C2.72184 28.9482 2.72598 28.7949 2.76328 28.6167C2.82751 28.306 2.9767 28.105 3.20876 28.0139C3.44083 27.9227 3.74541 27.9165 4.12252 27.9973L4.44368 26.4642L4.22198 26.4186C3.84487 26.3399 3.50713 26.3337 3.21291 26.3979C2.91661 26.4642 2.65968 26.5864 2.44005 26.7687C2.22041 26.951 2.04015 27.1831 1.89925 27.4669C1.75836 27.7507 1.65061 28.0698 1.57602 28.4241C1.41647 29.1865 1.48278 29.8266 1.777 30.3446C2.06916 30.8667 2.60788 31.2064 3.39317 31.3722Z" fill="black"/>
<path fill-rule="evenodd" clip-rule="evenodd" d="M11.4533 24.6079C11.6791 24.1127 11.789 23.6694 11.7848 23.2757C11.7807 22.8842 11.6667 22.5195 11.445 22.186C11.2233 21.8524 10.8897 21.5375 10.4484 21.2413C10.005 20.945 9.46209 20.6487 8.81355 20.3546C8.27068 20.108 7.76304 19.9133 7.29477 19.7765C6.82649 19.6377 6.39551 19.5859 6.00183 19.6191C5.60815 19.6522 5.25591 19.789 4.94303 20.0293C4.63016 20.2696 4.35666 20.6467 4.12252 21.1646L3.01399 23.601L10.3862 26.951L11.4533 24.6079ZM9.96766 24.9663L4.78349 22.6086L5.06943 21.9788C5.19789 21.6971 5.35329 21.4961 5.5377 21.3759C5.72211 21.2558 5.9376 21.1998 6.18624 21.2102C6.43488 21.2206 6.72496 21.2827 7.05441 21.3987C7.38386 21.5147 7.7589 21.6701 8.17744 21.8607C8.68094 22.0886 9.09327 22.2958 9.4165 22.4802C9.73974 22.6646 9.98423 22.851 10.1479 23.0375C10.3116 23.2239 10.4028 23.4166 10.4214 23.6155C10.438 23.8144 10.3883 24.0444 10.2681 24.3054L9.96766 24.9663Z" fill="black"/>
<path fill-rule="evenodd" clip-rule="evenodd" d="M15.7672 17.798L14.6918 17.0004L12.9016 19.414L11.1528 18.1171L12.7732 15.9313L11.6999 15.1337L10.0775 17.3194L8.54626 16.1841L10.2702 13.8617L9.1948 13.064L6.49704 16.6979L13.0032 21.5251L15.7672 17.798Z" fill="black"/>
<path fill-rule="evenodd" clip-rule="evenodd" d="M18.6245 15.1834L14.5882 7.91777L13.3305 9.04895L16.4448 14.305L16.4199 14.3278L11.561 10.6421L10.2619 11.8106L17.0643 16.586L18.6245 15.1834Z" fill="black"/>
<path fill-rule="evenodd" clip-rule="evenodd" d="M21.776 12.9418L17.3523 6.15678L15.9848 7.04971L20.4085 13.8327L21.776 12.9418Z" fill="black"/>
<path fill-rule="evenodd" clip-rule="evenodd" d="M20.711 8.75891C20.9638 9.3245 21.2187 9.83208 21.4797 10.2796C21.7408 10.7271 22.035 11.0793 22.3603 11.3403C22.6877 11.6014 23.0565 11.7464 23.4668 11.7795C23.8791 11.8127 24.364 11.7029 24.9234 11.4543C25.4145 11.2367 25.7792 10.9819 26.0195 10.6939C26.2599 10.406 26.4049 10.089 26.4546 9.74299C26.5044 9.39908 26.4795 9.03238 26.3821 8.64496C26.2847 8.25754 26.1459 7.86391 25.9677 7.46406L24.4759 8.12702C24.6541 8.52894 24.7742 8.8625 24.8343 9.12768C24.8944 9.39494 24.9131 9.61455 24.8903 9.78443C24.8675 9.95639 24.8095 10.089 24.7142 10.1843C24.6209 10.2796 24.5069 10.3562 24.3764 10.4142C24.2169 10.4847 24.0635 10.5137 23.9123 10.5013C23.761 10.4888 23.6056 10.406 23.4419 10.2506C23.2782 10.0952 23.1001 9.85487 22.9094 9.52546C22.7188 9.19605 22.4971 8.75269 22.2485 8.19332C22.0143 7.66709 21.832 7.21752 21.6973 6.84253C21.5626 6.46754 21.4818 6.15263 21.4507 5.89781C21.4197 5.64298 21.4424 5.43787 21.5191 5.28456C21.5958 5.13125 21.7263 5.01316 21.9128 4.93029C22.2505 4.77905 22.5385 4.79977 22.7768 4.9883C23.013 5.17683 23.2513 5.54146 23.4917 6.08012L24.9835 5.41716C24.8633 5.14783 24.7162 4.86814 24.5422 4.57602C24.3681 4.28598 24.1443 4.04151 23.875 3.84262C23.6056 3.64373 23.2782 3.52771 22.8929 3.49042C22.5095 3.4552 22.0495 3.55464 21.517 3.79082C20.9576 4.03944 20.5536 4.33363 20.307 4.66925C20.0604 5.00695 19.9237 5.38401 19.8967 5.80043C19.8719 6.21686 19.9382 6.67472 20.0956 7.16987C20.2593 7.67123 20.4624 8.19953 20.711 8.75891Z" fill="black"/>
<path d="M27.4596 1.95412L25.8808 2.37009L27.9445 10.2014L29.5234 9.78538L27.4596 1.95412Z" fill="black"/>
<path fill-rule="evenodd" clip-rule="evenodd" d="M41.0064 9.79686L41.0271 9.801C41.2737 9.84451 41.514 9.8673 41.7502 9.8673C42.5024 9.8673 43.2068 9.64355 43.8492 9.20019C44.7194 8.60767 45.2395 7.8204 45.4343 6.79488C45.629 5.77557 45.4322 4.82256 44.8458 3.96278C44.2553 3.09471 43.4679 2.57263 42.4423 2.36753L42.4195 2.36338C41.4063 2.16864 40.4531 2.37167 39.587 2.96212C38.7272 3.54636 38.1926 4.36056 37.9999 5.37987C37.8072 6.40124 38.004 7.35218 38.5883 8.21196C39.1726 9.0676 39.9869 9.60212 41.0064 9.79686ZM43.8844 4.85157C44.2076 4.82878 44.5288 4.7832 44.8396 4.71276C45.0903 5.27421 45.1732 5.87916 45.0903 6.51726L43.8264 6.27694C43.9072 5.77557 43.9258 5.30943 43.8844 4.85157ZM43.845 4.48486C43.7642 3.95035 43.6005 3.4842 43.3581 3.10093C43.9258 3.40548 44.3547 3.8219 44.6635 4.37092C44.3527 4.43307 44.0916 4.47658 43.845 4.48486ZM40.6914 3.97728C41.1162 3.2646 41.6736 2.79431 42.1605 2.74044L41.86 4.3212C41.3752 4.21346 41.0022 4.10366 40.6914 3.97728ZM42.7696 8.17467C42.349 8.88321 41.773 9.36593 41.2861 9.42187L41.5907 7.81833C41.9844 7.90534 42.3801 8.0255 42.7696 8.17467ZM41.6653 7.43505L41.8808 6.30387L43.3685 6.58563C43.2607 7.08078 43.1219 7.48892 42.9437 7.8349C42.5397 7.67538 42.1211 7.54486 41.6653 7.43505ZM41.7875 4.7024L41.57 5.84601L40.0822 5.56425C40.1817 5.11054 40.3226 4.69826 40.5091 4.30462C40.8966 4.46622 41.3275 4.60088 41.7875 4.7024ZM43.1281 8.32177C43.4306 8.46057 43.6606 8.59317 43.8471 8.73612C43.3519 9.12768 42.7821 9.36801 42.1543 9.4488C42.5293 9.17533 42.8546 8.7962 43.1281 8.32177ZM41.9533 5.91852L42.1708 4.77491C42.6267 4.83914 43.0701 4.87228 43.4907 4.87228C43.4949 4.87228 43.5011 4.87228 43.5052 4.87228C43.5363 5.30735 43.5156 5.74242 43.441 6.20235L41.9533 5.91852ZM40.3371 3.81776C39.9869 3.66445 39.7569 3.51735 39.6181 3.41376C40.1113 3.02013 40.6748 2.78395 41.2985 2.70937C40.9318 2.97662 40.6106 3.34954 40.3371 3.81776ZM41.2819 7.36254C40.8572 7.2921 40.4904 7.25895 40.1734 7.25895C40.0947 7.25895 40.0201 7.26102 39.9476 7.26517C39.9103 6.87153 39.931 6.43854 40.0097 5.94753L41.4974 6.23136L41.2819 7.36254ZM41.2094 7.74582L40.9048 9.34729C40.478 9.11939 40.132 8.46886 39.9973 7.63394C40.0159 7.63394 40.0346 7.63394 40.0553 7.63394C40.3786 7.63394 40.7474 7.66916 41.2094 7.74582ZM45.0178 6.89847C44.8603 7.52207 44.5682 8.03586 44.1247 8.47301C43.9383 8.3342 43.6523 8.16846 43.2959 7.99443C43.5031 7.55729 43.6523 7.12015 43.7518 6.65814L45.0178 6.89847ZM42.2434 4.39164L42.5438 2.81088C42.9748 3.03878 43.3229 3.67688 43.4576 4.49108C43.0473 4.48901 42.6495 4.45586 42.2434 4.39164ZM38.435 5.24934C38.5925 4.61953 38.8867 4.10159 39.3301 3.66445C39.5912 3.84262 39.873 4.00629 40.1672 4.1451C39.96 4.55738 39.8067 4.99866 39.6989 5.48967L38.435 5.24934ZM39.5953 7.65052C39.6699 8.19539 39.8336 8.66568 40.0781 9.05517C39.5249 8.75062 39.098 8.33005 38.7748 7.77275C39.0027 7.70645 39.2638 7.66709 39.5953 7.65052ZM39.5622 7.27346C39.2058 7.30453 38.8846 7.35633 38.6028 7.42262C38.3625 6.8591 38.2796 6.25622 38.3604 5.63262L39.6264 5.87294C39.5497 6.33909 39.529 6.80938 39.5622 7.27346Z" fill="black"/>
</svg>
