<svg width="646" height="100" viewBox="0 0 646 100" fill="none" xmlns="http://www.w3.org/2000/svg">
<path d="M42.7046 73.673C42.0715 76.8461 41.2658 79.3269 40.1722 81.0576C39.0787 82.8461 37.8126 83.9999 36.3737 84.5769C34.8773 85.1538 33.2658 85.4422 31.5968 85.4422C29.5249 85.4422 27.7407 85.0384 26.1292 84.173C24.5177 83.3076 23.2516 81.6345 22.2732 79.2115C21.2372 76.7884 20.489 73.2692 19.971 68.8268C19.5106 64.3845 19.2228 58.4999 19.2228 51.2307C19.2228 44.423 19.453 38.6538 19.7408 33.9807C20.0861 29.2499 20.7192 25.4999 21.6401 22.5576C22.5034 19.673 23.7695 17.5961 25.381 16.2692C26.9925 14.9422 28.9493 14.3076 31.3666 14.3076C35.6831 14.3076 38.7334 15.8653 40.3449 19.0961C42.014 22.2692 42.8773 27.3461 42.8773 34.3268H62.1576C62.1576 30.8653 61.9274 27.0576 61.4094 23.0768C60.949 19.0961 59.6828 15.4038 57.726 11.9422C55.7116 8.48069 52.834 5.65377 48.8053 3.40377C44.8341 1.21147 39.3665 0.0576172 32.5177 0.0576172C25.2659 0.0576172 19.5106 1.32685 15.1941 3.80762C10.9927 6.23069 7.71215 9.63454 5.41001 14.0192C3.10788 18.4038 1.66905 23.6538 0.978406 29.7692C0.287766 35.8845 0 42.6345 0 49.8461C0 57.173 0.287766 63.923 0.978406 69.9807C1.66905 76.0384 3.10788 81.2884 5.35246 85.7307C7.6546 90.0576 10.9351 93.4615 15.1941 95.8269C19.5106 98.1345 25.2659 99.2884 32.5177 99.2884C38.8485 99.2884 43.9708 98.3076 47.9419 96.3461C51.9131 94.3269 55.021 91.6153 57.208 88.1538C59.3951 84.6345 60.8915 80.5384 61.6972 75.923C62.5029 71.2499 62.9058 66.3461 62.9058 61.1538H43.5679C43.6254 66.3461 43.3377 70.5576 42.7046 73.673Z" fill="black"/>
<path d="M131.624 14.0192C129.38 9.63462 126.099 6.17308 121.783 3.75C117.466 1.32692 111.711 0 104.517 0C97.2649 0 91.5096 1.26923 87.1931 3.75C82.9342 6.23077 79.6536 9.63462 77.3515 14.0192C75.1069 18.3462 73.6105 23.5962 72.9774 29.7692C72.3443 35.9423 71.999 42.6346 71.999 49.8462C71.999 57.1731 72.2868 63.9231 72.9774 69.9808C73.6681 76.0385 75.1069 81.2885 77.3515 85.7308C79.6536 90.0577 82.9342 93.4615 87.1931 95.8269C91.5096 98.1346 97.2649 99.2885 104.517 99.2885C111.768 99.2885 117.524 98.1346 121.783 95.8269C126.099 93.4615 129.38 90.1154 131.624 85.7308C133.926 81.3462 135.365 76.0962 136.056 69.9808C136.689 63.9231 137.034 57.1731 137.034 49.8462C137.034 42.5769 136.689 35.8846 136.056 29.7692C135.423 23.6538 133.926 18.4038 131.624 14.0192ZM117.294 66.3461C117.006 70.8461 116.373 74.5385 115.394 77.3654C114.473 80.1346 113.15 82.2692 111.423 83.4808C109.639 84.8077 107.337 85.4423 104.517 85.4423C101.639 85.4423 99.3369 84.8077 97.6103 83.4808C95.8837 82.2115 94.5024 80.1346 93.5815 77.3654C92.6607 74.5385 92.0276 70.8461 91.6823 66.3461C91.337 61.8461 91.2218 56.3077 91.2218 49.8462C91.2218 43.3846 91.3945 37.9615 91.6823 33.4615C91.97 28.9615 92.6031 25.2692 93.5815 22.4423C94.5024 19.5577 95.8837 17.5385 97.6103 16.2115C99.3369 14.8846 101.639 14.25 104.517 14.25C107.337 14.25 109.639 14.8846 111.423 16.2115C113.15 17.5385 114.473 19.5577 115.394 22.4423C116.315 25.2692 116.948 28.9615 117.294 33.4615C117.581 37.9038 117.754 43.3846 117.754 49.8462C117.754 56.3077 117.581 61.8461 117.294 66.3461Z" fill="black"/>
<path d="M167.768 1.90381H148.43V97.8461H201.897V81.9807H167.768V1.90381Z" fill="black"/>
<path d="M229.753 1.90381H210.473V97.8461H263.882V81.9807H229.753V1.90381Z" fill="black"/>
<path d="M291.853 56.1923H323.968V40.3269H291.853V17.7692H325.982V1.90381H272.515V97.8461H327.306V81.9807H291.853V56.1923Z" fill="black"/>
<path d="M377.665 73.673C377.032 76.8461 376.226 79.3269 375.133 81.0576C374.039 82.8461 372.773 83.9999 371.334 84.5769C369.838 85.1538 368.226 85.4422 366.557 85.4422C364.485 85.4422 362.701 85.0384 361.09 84.173C359.478 83.3076 358.212 81.6345 357.234 79.2115C356.198 76.7884 355.45 73.2692 354.932 68.8268C354.471 64.3845 354.183 58.4999 354.183 51.2307C354.183 44.423 354.414 38.6538 354.701 33.9807C355.047 29.2499 355.68 25.4999 356.601 22.5576C357.464 19.673 358.73 17.5961 360.342 16.2692C361.953 14.9422 363.91 14.3076 366.327 14.3076C370.644 14.3076 373.694 15.8653 375.305 19.0961C376.974 22.2692 377.838 27.3461 377.838 34.3268H397.118C397.118 30.8653 396.888 27.0576 396.37 23.0768C395.91 19.0961 394.643 15.4038 392.687 11.9422C390.672 8.48069 387.794 5.65377 383.766 3.40377C379.795 1.21147 374.327 0.0576172 367.478 0.0576172C360.226 0.0576172 354.471 1.26916 350.212 3.74993C345.953 6.2307 342.673 9.63454 340.371 14.0192C338.126 18.3461 336.63 23.5961 335.996 29.7692C335.363 35.9422 335.018 42.6345 335.018 49.8461C335.018 57.173 335.306 63.923 335.996 69.9807C336.687 76.0384 338.126 81.2884 340.371 85.7307C342.673 90.0576 345.953 93.4615 350.212 95.8269C354.529 98.1345 360.284 99.2884 367.536 99.2884C373.867 99.2884 378.989 98.3076 382.96 96.3461C386.931 94.3269 390.039 91.6153 392.226 88.1538C394.413 84.6345 395.909 80.5384 396.715 75.923C397.521 71.2499 397.924 66.3461 397.924 61.1538H378.643C378.643 66.3461 378.298 70.5576 377.665 73.673Z" fill="black"/>
<path d="M403.852 17.7692H424.744V97.8461H444.024V17.7692H464.916V1.90381H403.852V17.7692Z" fill="black"/>
<path d="M493.462 1.90381H474.125V97.7884H493.462V1.90381Z" fill="black"/>
<path d="M565.462 14.0192C563.217 9.63462 559.937 6.17308 555.62 3.75C551.304 1.32692 545.548 0 538.354 0C531.102 0 525.347 1.26923 521.031 3.75C516.772 6.23077 513.491 9.63462 511.189 14.0192C508.944 18.3462 507.448 23.5962 506.815 29.7692C506.182 35.9423 505.836 42.6346 505.836 49.8462C505.836 57.1731 506.124 63.9231 506.815 69.9808C507.505 76.0385 508.944 81.2885 511.189 85.7308C513.491 90.0577 516.772 93.4615 521.031 95.8269C525.347 98.1346 531.102 99.2885 538.354 99.2885C545.606 99.2885 551.361 98.1346 555.62 95.8269C559.937 93.4615 563.217 90.1154 565.462 85.7308C567.764 81.3462 569.203 76.0962 569.893 69.9808C570.526 63.9231 570.872 57.1731 570.872 49.8462C570.872 42.5769 570.526 35.8846 569.893 29.7692C569.26 23.6538 567.764 18.4038 565.462 14.0192ZM551.131 66.3461C550.843 70.8461 550.21 74.5385 549.232 77.3654C548.311 80.1346 546.987 82.2692 545.26 83.4808C543.476 84.8077 541.174 85.4423 538.354 85.4423C535.476 85.4423 533.174 84.8077 531.448 83.4808C529.721 82.2115 528.34 80.1346 527.419 77.3654C526.498 74.5385 525.865 70.8461 525.52 66.3461C525.174 61.8461 525.059 56.3077 525.059 49.8462C525.059 43.3846 525.232 37.9615 525.52 33.4615C525.807 28.9615 526.441 25.2692 527.419 22.4423C528.34 19.5577 529.721 17.5385 531.448 16.2115C533.174 14.8846 535.476 14.25 538.354 14.25C541.174 14.25 543.476 14.8846 545.26 16.2115C546.987 17.5385 548.311 19.5577 549.232 22.4423C550.152 25.2692 550.786 28.9615 551.131 33.4615C551.419 37.9038 551.591 43.3846 551.591 49.8462C551.591 56.3077 551.476 61.8461 551.131 66.3461Z" fill="black"/>
<path d="M628.137 1.90381V67.6153H627.792L604.54 1.90381H582.267V97.8461H599.994V30.6923H600.224L623.821 97.8461H645.748V1.90381H628.137Z" fill="black"/>
</svg>
