<svg width="80" height="193" viewBox="0 0 80 193" fill="none" xmlns="http://www.w3.org/2000/svg">
<path d="M1.74179 192.15L70.9998 192.15L70.9998 178.182L40.9298 178.182L40.9298 154.902L29.4838 154.902L29.4838 178.182L13.1878 178.182L13.1878 153.447L1.74179 153.447L1.74179 192.15Z" fill="black"/>
<path d="M44.9068 123.554L13.7698 130.247L13.7698 130.441L44.9068 137.134L44.9068 123.554ZM1.74179 121.711L70.9998 103.378L70.9998 117.928L56.3528 121.129L56.3528 139.559L70.9998 142.76L70.9998 157.31L1.74179 138.977L1.74179 121.711Z" fill="black"/>
<path d="M36.3708 85.0999C31.7148 85.0999 27.7701 85.0029 24.5368 84.8089C21.3035 84.5502 18.6521 84.0976 16.5828 83.4509C14.5134 82.7396 13.0261 81.7696 12.1208 80.5409C11.1508 79.2476 10.6658 77.5662 10.6658 75.4969C10.6658 73.4276 11.1508 71.7786 12.1208 70.5499C13.0261 69.2566 14.5134 68.2866 16.5828 67.6399C18.6521 66.9286 21.3035 66.4759 24.5368 66.2819C27.7701 66.0232 31.7148 65.8939 36.3708 65.8939C41.0268 65.8939 45.0038 66.0232 48.3018 66.2819C51.5351 66.4759 54.1865 66.9286 56.2558 67.6399C58.2605 68.2866 59.7478 69.2566 60.7178 70.5499C61.6231 71.7786 62.0758 73.4276 62.0758 75.4969C62.0758 77.5662 61.6231 79.2476 60.7178 80.5409C59.7478 81.7696 58.2605 82.7396 56.2558 83.4509C54.1865 84.0976 51.5351 84.5502 48.3018 84.8089C45.0038 85.0029 41.0268 85.0999 36.3708 85.0999ZM79.2448 58.0369L71.7758 49.7919L64.5008 57.2609C61.2028 54.9976 57.1611 53.5426 52.3758 52.8959C47.5905 52.2493 42.2555 51.9259 36.3708 51.9259C31.1328 51.9259 26.3151 52.1846 21.9178 52.7019C17.4558 53.1546 13.6404 54.2216 10.4718 55.9029C7.30312 57.5196 4.84578 59.8799 3.09978 62.9839C1.28912 66.0879 0.383784 70.2589 0.383784 75.4969C0.383784 80.7349 1.28912 84.9059 3.09978 88.0099C4.84578 91.1139 7.30312 93.5066 10.4718 95.1879C13.6405 96.8046 17.4558 97.8716 21.9178 98.3889C26.3151 98.8416 31.1328 99.0679 36.3708 99.0679C41.6735 99.0679 46.5235 98.8416 50.9208 98.3889C55.3181 97.8716 59.1011 96.8046 62.2698 95.1879C65.4385 93.5066 67.8635 91.1139 69.5448 88.0099C71.2261 84.9059 72.0668 80.7349 72.0668 75.4969C72.0668 71.9402 71.7111 68.8686 70.9998 66.2819L79.2448 58.0369Z" fill="black"/>
<path d="M49.3688 32.4615L49.3688 46.4295L52.1818 46.4295C58.5838 46.4295 63.4985 44.7482 66.9258 41.3855C70.3531 37.9582 72.0668 32.2998 72.0668 24.4105C72.0668 16.8445 70.4178 10.9598 67.1198 6.7565C63.7571 2.4885 58.4221 0.354505 51.1148 0.354505C48.9808 0.354505 47.0408 0.548507 45.2948 0.936506C43.5488 1.32451 41.9645 2.03584 40.5418 3.07051C39.0545 4.04051 37.6965 5.36617 36.4678 7.0475C35.1745 8.72883 33.9458 10.8952 32.7818 13.5465L28.1258 24.3135C26.8971 27.2882 25.5715 29.2282 24.1488 30.1335C22.6614 31.0388 20.8508 31.4915 18.7168 31.4915C17.6821 31.4915 16.6798 31.3945 15.7098 31.2005C14.7398 30.9418 13.8991 30.5215 13.1878 29.9395C12.4118 29.2928 11.7974 28.4522 11.3448 27.4175C10.8921 26.3828 10.6658 25.0895 10.6658 23.5375C10.6658 20.8215 11.5711 18.8815 13.3818 17.7175C15.1278 16.5535 17.6498 15.9715 20.9478 15.9715L20.9478 2.58551L19.0078 2.58551C15.7098 2.58551 12.8968 3.13518 10.5688 4.23451C8.17612 5.26918 6.23612 6.7565 4.74878 8.6965C3.19678 10.5718 2.09745 12.8352 1.45078 15.4865C0.739449 18.0732 0.383782 20.9185 0.383782 24.0225C0.383782 30.6832 2.06512 35.9212 5.42778 39.7365C8.79045 43.5518 13.8991 45.4595 20.7538 45.4595C23.5991 45.4595 26.1211 45.1038 28.3198 44.3925C30.4538 43.6812 32.3615 42.5818 34.0428 41.0945C35.6595 39.5425 37.0821 37.6348 38.3108 35.3715C39.5395 33.1082 40.6711 30.4245 41.7058 27.3205C42.4818 24.9925 43.2578 23.0525 44.0338 21.5005C44.7451 19.8838 45.5535 18.5905 46.4588 17.6205C47.3641 16.6505 48.3988 15.9715 49.5628 15.5835C50.6621 15.1308 51.9878 14.9045 53.5398 14.9045C56.4498 14.9045 58.6161 15.7775 60.0388 17.5235C61.3968 19.2048 62.0758 21.1125 62.0758 23.2465C62.0758 25.0572 61.8171 26.5768 61.2998 27.8055C60.7825 28.9695 60.0711 29.9072 59.1658 30.6185C58.2605 31.3298 57.1611 31.8148 55.8678 32.0735C54.5098 32.3322 53.0225 32.4615 51.4058 32.4615L49.3688 32.4615Z" fill="black"/>
</svg>
