<svg width="40" height="18" viewBox="0 0 40 18" fill="none" xmlns="http://www.w3.org/2000/svg">
<path fill-rule="evenodd" clip-rule="evenodd" d="M37.3305 13.014L33.8057 13.0195C34.3841 11.8719 34.7224 10.5765 34.7542 9.20326L38.9204 9.19706C38.8756 10.5839 38.2565 11.9416 37.3305 13.014ZM29.7741 16.964C30.7128 16.5236 31.5612 15.9152 32.279 15.1732C32.7715 14.6641 33.2025 14.0927 33.5621 13.4722L36.9156 13.4669C35.1318 15.2913 32.4325 16.4693 29.7741 16.964ZM30.377 13.4769L33.0324 13.473C31.9305 15.2512 30.1778 16.5665 28.1251 17.0698C29.1007 16.3412 29.9153 14.9529 30.377 13.4769ZM26.4838 13.4829L29.902 13.4777C29.7257 13.9994 29.521 14.4817 29.2904 14.9133C28.6224 16.1235 27.7773 17.1173 26.4895 17.2858L26.4838 13.4829ZM26.4773 9.21584L30.59 9.20964C30.5727 10.5922 30.377 11.8912 30.0452 13.0253L26.4831 13.0304L26.4773 9.21584ZM26.4708 4.9488L30.0309 4.94326C30.3664 6.0765 30.566 7.37424 30.5878 8.75708L26.4767 8.7634L26.4708 4.9488ZM26.4644 0.693498C28.2155 0.990049 29.0809 2.44115 29.8189 4.28991C29.8426 4.3554 29.8636 4.42449 29.8863 4.49106L26.4702 4.4963L26.4644 0.693498ZM33.0187 4.48631L30.3663 4.49058C30.1708 3.89212 29.9372 3.33935 29.671 2.84357C29.2278 2.02584 28.7169 1.37026 28.1005 0.904761C30.1548 1.40174 31.9114 2.71152 33.0187 4.48631ZM36.8992 4.48059L33.5483 4.48559C32.6649 2.96696 31.3359 1.73952 29.7408 1.00136C32.6327 1.57779 34.9734 2.59204 36.8992 4.48059ZM30.5034 4.94248L33.2836 4.93833C33.8989 6.07151 34.2631 7.3687 34.3012 8.75166L31.0415 8.7566C31.0203 7.38339 30.8296 6.08932 30.5034 4.94248ZM34.3018 9.2038C34.2679 10.587 33.9077 11.8852 33.2958 13.0203L30.5132 13.0245C30.8362 11.8763 31.0237 10.5826 31.0407 9.2088L34.3018 9.2038ZM38.9197 8.7445L34.7536 8.75082C34.7175 7.37785 34.3753 6.08354 33.7934 4.93749L37.3152 4.93237C38.2481 5.99976 38.8704 7.35745 38.9197 8.7445ZM22.6134 13.4887L26.0314 13.4835L26.0372 17.2865C24.1988 17.0314 23.1929 15.1114 22.6134 13.4887ZM19.4623 13.4937C20.1675 13.4927 21.3971 13.4908 22.1145 13.4897C22.3086 14.0822 22.5318 14.6056 22.81 15.1365C23.2532 15.9542 23.764 16.6098 24.3805 17.0754C22.3373 16.5812 20.5655 15.2665 19.4623 13.4937ZM20.4424 16.3766L20.45 16.373C20.2342 16.3006 20.0204 16.2262 19.8122 16.1458L19.8087 16.1474C18.2545 15.5447 16.7795 14.6811 15.5988 13.4994C16.4251 13.4982 18.135 13.4955 18.9531 13.4943C19.1798 13.8686 19.5941 14.4225 19.8108 14.7113C20.1123 15.0749 20.4446 15.4116 20.8033 15.7182L20.8022 15.7187C21.3954 16.223 22.0546 16.6498 22.7606 16.9787C21.9703 16.8288 21.2006 16.6284 20.4424 16.3766ZM16.8699 16.9837C17.3867 16.7412 17.876 16.448 18.3311 16.1092C18.3637 16.0849 18.3966 16.061 18.4288 16.0363C18.6721 16.1562 18.9218 16.276 19.1767 16.3758C19.1155 16.3967 19.0536 16.4169 18.9918 16.4371C18.3166 16.659 17.6079 16.8428 16.8699 16.9837ZM15.2771 17.0479C15.8531 16.5903 16.3582 15.9382 16.781 15.1454C16.7906 15.1274 16.8004 15.1098 16.8099 15.0917C17.178 15.3451 17.5696 15.5825 17.9804 15.8043C17.9514 15.8254 17.922 15.8458 17.8927 15.8665C17.0935 16.4311 16.1917 16.8509 15.2209 17.0895L15.2771 17.0479ZM13.5795 13.5026L14.9798 13.5005C15.024 13.5497 15.0693 13.5983 15.1148 13.6468C15.508 14.0658 15.9512 14.4604 16.4404 14.8265C16.4327 14.841 16.4249 14.8555 16.4172 14.87C15.7653 16.0929 14.8894 17.1382 13.5853 17.3054L13.5795 13.5026ZM13.5762 11.2957C13.7372 11.6937 13.9367 12.0804 14.1752 12.4522C14.3057 12.6553 14.4476 12.8541 14.5994 13.0486L13.5789 13.0501L13.5762 11.2957ZM16.3993 3.14439C16.6331 3.59407 16.8261 4.06276 16.9823 4.51075L15.5859 4.51285C15.4501 4.51309 15.2274 4.51351 14.9753 4.51381C14.4712 4.51466 13.8493 4.51562 13.5659 4.51598L13.5602 0.71318C14.8551 0.875269 15.7738 1.94128 16.3993 3.14439ZM17.8772 2.14243C18.7692 2.76857 19.5343 3.57384 20.1144 4.50605C19.4093 4.50707 18.1797 4.50888 17.4623 4.50996C17.2682 3.91836 17.0458 3.39424 16.7675 2.8644C16.7673 2.86391 16.767 2.86343 16.7668 2.86301C16.3237 2.04528 15.8127 1.38994 15.1963 0.924383C16.1653 1.15864 17.0728 1.57773 17.8772 2.14243ZM18.983 1.56702C20.8521 2.17126 22.6004 3.11003 23.995 4.50027C23.056 4.50154 21.5847 4.50388 20.6441 4.50527C20.153 3.66888 19.5304 2.91194 18.7939 2.28158C18.639 2.14803 18.4792 2.02073 18.3152 1.89914C17.8546 1.55763 17.3598 1.26373 16.8367 1.02099C17.561 1.15972 18.2805 1.33993 18.983 1.56702ZM22.7275 1.01629C22.1736 1.27595 21.6508 1.59326 21.1684 1.96343C20.996 1.87832 20.8214 1.79502 20.6427 1.71533C20.5704 1.68313 20.4937 1.65508 20.4205 1.62396C21.1508 1.37424 21.9219 1.16983 22.7275 1.01629ZM22.7874 2.90803C22.4193 2.6547 22.0278 2.41725 21.6169 2.19539C22.4376 1.59904 23.3701 1.15756 24.3764 0.910178C23.7491 1.38784 23.233 2.06539 22.7874 2.90803ZM26.0178 4.49714L24.6172 4.49919C24.1917 4.0255 23.7027 3.58161 23.1569 3.17347C23.175 3.13807 23.1925 3.10142 23.211 3.06681C23.8791 1.85683 24.7243 0.862749 26.012 0.69428L26.0178 4.49714ZM26.0211 6.70403C25.7713 6.08144 25.4178 5.48569 24.9978 4.95091L26.0184 4.94934L26.0211 6.70403ZM18.2167 9.23185L21.4778 9.22692C21.4977 10.523 21.672 11.8308 22.016 13.0373C21.2149 13.0386 20.0348 13.0404 19.2324 13.0415C18.6183 11.9091 18.2547 10.6134 18.2167 9.23185ZM17.7644 9.22926C17.798 10.565 18.1253 11.8692 18.7226 13.0423C17.7878 13.0439 16.1357 13.0462 15.1862 13.0478C14.2533 11.9801 13.6311 10.6226 13.5817 9.23552L17.7644 9.22926ZM20.8892 4.95723C21.8162 4.95584 23.4695 4.95326 24.411 4.95199C25.3439 6.01938 25.9663 7.37713 26.0156 8.76424C25.9433 8.76424 21.9214 8.77044 21.8493 8.77044C21.8164 7.43316 21.4868 6.13049 20.8892 4.95723ZM21.397 8.77129C21.3241 8.77129 18.2099 8.77598 18.1374 8.77622C18.1186 7.47638 17.9439 6.17058 17.5991 4.96222C17.9403 4.96162 18.8775 4.9603 19.2057 4.95988L20.3793 4.95795C20.9946 6.09113 21.3589 7.38808 21.397 8.77129ZM13.5666 4.96842C13.863 4.96794 14.2274 4.9674 14.6179 4.9668C15.4777 4.96547 16.4637 4.96409 17.1269 4.96295C17.4624 6.09612 17.6618 7.39386 17.6835 8.77682L13.5723 8.78302C13.5717 8.3233 13.5706 7.6307 13.5696 6.93239C13.5685 6.19477 13.5673 5.4509 13.5666 4.96842ZM26.0307 13.0313C25.0885 13.0326 23.4401 13.0352 22.4838 13.0365C22.1493 11.9044 21.95 10.6074 21.9286 9.22631L26.0162 9.21668L26.025 9.21638C26.0264 10.2118 26.0292 12.0464 26.0307 13.0313ZM9.77849 13.7099C9.75477 13.6444 9.73365 13.5752 9.7109 13.5084L13.1272 13.5032L13.133 17.3063C11.3818 17.0097 10.5164 15.5586 9.77849 13.7099ZM6.57854 13.5131L9.23089 13.5092C9.42644 14.1076 9.66016 14.6604 9.92637 15.1561C10.3694 15.9742 10.8805 16.6294 11.4967 17.095C9.44245 16.598 7.68578 15.2879 6.57854 13.5131ZM2.69803 13.5192L6.04888 13.5139C6.93227 15.0327 8.26118 16.2602 9.85643 16.9983C6.96447 16.4219 4.62384 15.4074 2.69803 13.5192ZM0.677608 9.2549L4.84377 9.24864C4.87982 10.6219 5.22188 11.9162 5.80379 13.0619L2.28201 13.0672C1.34926 11.9997 0.726843 10.6423 0.677608 9.2549ZM2.2669 4.98546L5.79157 4.98022C5.21309 6.1279 4.87483 7.42323 4.84311 8.79644L0.676946 8.80264C0.721726 7.41559 1.34089 6.0579 2.2669 4.98546ZM9.82327 1.03567C8.8845 1.4762 8.03596 2.08453 7.3182 2.82654C6.82592 3.33531 6.39484 3.90705 6.03527 4.52748L2.68172 4.53247C4.46572 2.70839 7.16478 1.53037 9.82327 1.03567ZM9.33857 4.16725C9.29692 4.28281 9.25906 4.40331 9.22042 4.52254L6.56506 4.5267C7.66682 2.74847 9.41952 1.43316 11.4722 0.92986C10.5617 1.62757 9.85559 2.74691 9.33857 4.16725ZM13.1134 4.51676L9.69543 4.5217C9.8716 4.00034 10.0764 3.51799 10.3068 3.08649C10.9749 1.87645 11.82 0.882371 13.1077 0.713962L13.1134 4.51676ZM13.12 8.78386L9.00741 8.78982C9.0245 7.40752 9.22041 6.10852 9.55206 4.9745L13.1142 4.96902L13.12 8.78386ZM5.29549 8.7956C5.32926 7.41252 5.68955 6.11448 6.30149 4.9795L9.08415 4.97522C8.76123 6.12315 8.5735 7.41691 8.55647 8.79067L5.29549 8.7956ZM8.55569 9.24317C8.57699 10.6163 8.76773 11.9101 9.09396 13.0569L6.31365 13.0611C5.69833 11.9279 5.33425 10.631 5.29615 9.2481L8.55569 9.24317ZM13.1264 13.0509L9.56626 13.0561C9.23089 11.923 9.03124 10.6255 9.00957 9.24232L13.1207 9.23606L13.1264 13.0509ZM26.437 0C24.0293 0 21.7721 0.438477 19.8278 1.20432C17.8834 0.438477 15.6263 0 13.2185 0C5.91815 0 0 4.02941 0 9C0 13.9706 5.91815 18 13.2185 18C15.6263 18 17.8834 17.5615 19.8278 16.7957C21.7721 17.5615 24.0293 18 26.437 18C33.7373 18 39.6555 13.9706 39.6555 9C39.6555 4.02941 33.7373 0 26.437 0Z" fill="black"/>
</svg>
