<svg width="34" height="34" viewBox="0 0 34 34" fill="none" xmlns="http://www.w3.org/2000/svg">
<path d="M8.31111 16.9773C8.31111 21.7761 12.2013 25.6662 17 25.6662C21.7987 25.6662 25.6889 21.7761 25.6889 16.9773C25.2129 5.42489 8.78711 5.42111 8.31111 16.9773ZM10.9858 16.9773C10.9858 13.6558 13.6784 10.9631 17 10.9631C20.3216 10.9631 23.0142 13.6558 23.0142 16.9773C22.6856 24.9749 11.3333 24.9787 10.9858 16.9773Z" fill="black"/>
<path d="M26.0327 0H7.96733C3.56882 0.00416526 0.00416526 3.56882 0 7.96733V26.0327C0.00416526 30.4312 3.56882 33.9958 7.96733 34H26.0327C30.4312 33.9958 33.9958 30.4312 34 26.0327V7.96733C33.9958 3.56882 30.4312 0.00416526 26.0327 0ZM31.3556 26.0327C31.3566 27.4447 30.7961 28.7992 29.7976 29.7976C28.7992 30.7961 27.4447 31.3566 26.0327 31.3556H7.96733C6.55531 31.3566 5.20083 30.7961 4.20237 29.7976C3.20392 28.7992 2.64344 27.4447 2.64444 26.0327V7.96733C2.64344 6.55531 3.20392 5.20083 4.20237 4.20237C5.20083 3.20392 6.55531 2.64344 7.96733 2.64444H26.0327C27.4447 2.64344 28.7992 3.20392 29.7976 4.20237C30.7961 5.20083 31.3566 6.55531 31.3556 7.96733V26.0327Z" fill="black"/>
<path d="M26.4444 6.04444C25.6099 6.04444 24.9333 6.72099 24.9333 7.55556C24.9333 8.39012 25.6099 9.06667 26.4444 9.06667C27.279 9.06667 27.9556 8.39012 27.9556 7.55556C27.9556 6.72099 27.279 6.04444 26.4444 6.04444Z" fill="black"/>
</svg>
