<svg width="31" height="31" viewBox="0 0 31 31" fill="none" xmlns="http://www.w3.org/2000/svg">
<path fill-rule="evenodd" clip-rule="evenodd" d="M25.63 23.578C23.9594 25.6466 21.7202 27.1744 19.2196 27.9884C17.9694 28.3954 16.6546 28.6246 15.3127 28.6549C13.9703 28.6844 12.6013 28.5156 11.2415 28.1257C9.42761 27.6056 7.8089 26.744 6.42963 25.63C4.36095 23.9594 2.83334 21.7196 2.0192 19.2196C1.61221 17.9694 1.38296 16.6546 1.35288 15.3121C1.32322 13.9703 1.49195 12.6013 1.88204 11.2409C2.40198 9.42761 3.26357 7.8089 4.37757 6.42963C6.04819 4.36095 8.28803 2.83334 10.7879 2.0192C12.0384 1.61161 13.353 1.38296 14.6955 1.35288C16.0373 1.32322 17.4063 1.49195 18.7667 1.88204C20.58 2.40198 22.1987 3.26357 23.5781 4.37697C25.6468 6.04759 27.1738 8.28726 27.9884 10.7879C28.3954 12.0382 28.6246 13.353 28.6543 14.6948C28.6844 16.0373 28.5152 17.4056 28.1257 18.7661C27.605 20.5798 26.744 22.1987 25.63 23.578ZM29.899 13.2009C29.5463 10.2982 28.3495 7.5737 26.4948 5.35948C25.5671 4.25228 24.4743 3.27263 23.2402 2.46259C22.0061 1.65256 20.6299 1.01257 19.1387 0.584958C17.1493 0.0145245 15.1354 -0.126384 13.2009 0.108562C10.2982 0.461326 7.5737 1.6581 5.35948 3.51283C4.25228 4.4405 3.27263 5.53329 2.46259 6.7674C1.65256 8.0015 1.01257 9.37769 0.584958 10.8689C0.0145246 12.8583 -0.126384 14.8722 0.108562 16.8067C0.461326 19.7094 1.65828 22.4333 3.51361 24.6477C4.44067 25.7547 5.53329 26.735 6.7674 27.545C8.0015 28.355 9.37769 28.995 10.8695 29.4228C12.8583 29.9931 14.8722 30.134 16.8067 29.899C19.7094 29.5463 22.4339 28.3495 24.6483 26.4942C25.7555 25.5665 26.735 24.4743 27.545 23.2402C28.355 22.0061 28.995 20.6299 29.4228 19.1381C29.9931 17.1493 30.134 15.1354 29.899 13.2009Z" fill="black"/>
<path fill-rule="evenodd" clip-rule="evenodd" d="M11.7852 12.5165C12.6668 12.7693 13.871 11.2665 14.4749 9.16077C15.0788 7.05445 14.8539 5.14182 13.9723 4.88902C13.0907 4.63623 11.8865 6.13906 11.2825 8.24538C10.6787 10.3511 10.9036 12.2637 11.7852 12.5165Z" fill="black"/>
<path fill-rule="evenodd" clip-rule="evenodd" d="M18.3506 14.3991C19.2322 14.6519 20.4365 13.1491 21.0403 11.0434C21.6443 8.93705 21.4194 7.02442 20.5378 6.77162C19.6562 6.51883 18.4519 8.02166 17.8479 10.128C17.2441 12.2337 17.469 14.1463 18.3506 14.3991Z" fill="black"/>
<path fill-rule="evenodd" clip-rule="evenodd" d="M25.7739 16.9439C25.6001 17.0402 25.4186 17.0952 25.2354 17.1151C25.1763 17.121 25.117 17.1229 25.0579 17.1217L24.3524 16.9194C24.3011 16.889 24.2518 16.8559 24.2054 16.8198C24.06 16.7056 23.9352 16.5628 23.8394 16.3892C23.6588 16.0633 23.2475 15.9454 22.9217 16.126C22.5958 16.3067 22.478 16.7173 22.6587 17.0432C22.843 17.3767 23.0889 17.6593 23.373 17.8817C23.4976 17.9794 23.6304 18.0651 23.7677 18.1391C23.4092 19.1255 22.8981 20.0179 22.2689 20.7967C21.1286 22.2083 19.6001 23.2514 17.8927 23.8072C17.0396 24.0854 16.1419 24.2417 15.2262 24.2623C14.3108 24.2824 13.376 24.1671 12.4474 23.9008C11.2088 23.5456 10.1041 22.9581 9.16318 22.1975C7.75145 21.0579 6.70855 19.5287 6.1525 17.8219C5.87456 16.9683 5.71807 16.0711 5.698 15.1556C5.68214 14.4417 5.74858 13.7162 5.9048 12.9915C6.02604 12.9943 6.14797 12.9901 6.26974 12.9774C6.62849 12.9393 6.98619 12.8298 7.31984 12.6449C7.64573 12.4642 7.76348 12.0536 7.58284 11.7277C7.4022 11.4018 6.99094 11.2839 6.66566 11.4647C6.49185 11.561 6.31033 11.616 6.12712 11.6359C6.068 11.6418 6.00871 11.6437 5.94909 11.6423L5.24356 11.44C5.19284 11.4098 5.14358 11.3767 5.09657 11.3404C4.95174 11.2264 4.82693 11.0836 4.73059 10.9098C4.54995 10.5839 4.1393 10.4662 3.81341 10.6468C3.48752 10.8275 3.36977 11.2381 3.55041 11.564C3.73475 11.8975 3.98067 12.1801 4.26412 12.4023C4.37235 12.4869 4.48559 12.5631 4.60358 12.6295C4.33315 13.8389 4.28055 15.0533 4.42316 16.2264C4.67435 18.2908 5.52514 20.2283 6.84417 21.8027C7.50329 22.5901 8.28047 23.2868 9.15875 23.8629C10.0364 24.439 11.0148 24.8937 12.0755 25.1979C13.4888 25.6038 14.9218 25.7041 16.2978 25.5368C18.362 25.2862 20.2989 24.4352 21.8735 23.1156C22.6611 22.4559 23.3575 21.6793 23.9337 20.801C24.4018 20.0881 24.7905 19.3082 25.0826 18.4718C25.1811 18.4719 25.2796 18.4676 25.3786 18.4568C25.7367 18.4185 26.095 18.3092 26.4281 18.1241C26.754 17.9434 26.8717 17.5328 26.6911 17.2069C26.5104 16.881 26.0998 16.7632 25.7739 16.9439Z" fill="black"/>
</svg>
