<svg width="110" height="28" viewBox="0 0 110 28" fill="none" xmlns="http://www.w3.org/2000/svg">
<path d="M54.2187 4.72709C58.5061 5.31 59.4386 10.782 63.8216 10.774C66.0933 10.7701 67.442 9.35591 67.442 7.36151C67.442 3.02878 62.0875 0 56.0797 0C48.2602 0 43.2542 5.86638 43.2542 13.5731C43.2542 21.0873 48.5311 27.9509 56.5038 27.9509C64.0524 27.9509 67.3644 23.0817 67.3644 18.174C67.3644 16.8701 65.8626 16.5634 65.0927 17.4451C63.9764 18.7105 62.473 20.8961 59.161 20.8961C54.9634 20.8961 50.8174 16.1796 50.8804 8.74246C50.9107 5.2184 53.0303 4.56508 54.2187 4.72709Z" fill="black"/>
<path d="M96.1487 0.0119623C87.9838 0.0119623 82.5522 5.72429 82.5522 14.1972C82.5522 22.7086 89.1766 28 96.1487 28C103.697 28 109.821 22.7086 109.821 14.1972C109.822 5.6858 103.313 0.0119623 96.1487 0.0119623ZM98.3109 24.148C94.576 24.148 90.5158 14.4389 90.5158 8.01479C90.5158 5.19982 91.4947 3.864 93.4529 3.864C97.2237 3.864 101.32 14.6553 101.32 20.1061C101.32 22.8494 100.341 24.148 98.3109 24.148Z" fill="black"/>
<path d="M27.9625 0.34528H21.5691C20.9915 0.34528 20.606 0.652009 20.606 1.14995V1.30265C20.606 1.65054 20.8221 1.94665 21.1076 2.23744L21.1089 2.23877C21.1423 2.2733 21.177 2.30649 21.2117 2.34101C21.4037 2.55346 21.7719 3.07929 21.5038 3.78835C21.5038 3.78835 21.5051 3.78835 21.5051 3.78968L16.4003 14.7337L11.7089 4.94488C11.685 4.8838 11.6649 4.8254 11.6476 4.76695L11.4662 4.30751H11.4702L11.2674 3.79101C11.2674 3.79101 11.2688 3.79101 11.2688 3.78968C11.0007 3.08062 11.3688 2.55479 11.5609 2.34234C11.5956 2.30782 11.6303 2.27462 11.6636 2.2401L11.665 2.23877C11.9504 1.94798 12.1665 1.65187 12.1665 1.30397V1.15127C12.1665 0.653338 11.781 0.346609 11.2034 0.346609H0.963074C0.385498 0.346609 0 0.653338 0 1.15127V1.30397C0 1.60805 0.0920389 1.85901 0.242769 2.09935L12.0171 25.6538C12.0544 25.7321 12.0918 25.8065 12.1305 25.8795L12.1638 25.9472C12.1638 25.9472 12.1625 25.9432 12.1625 25.9406C12.7561 27.0334 13.5404 27.5672 14.8276 27.5672C16.3683 27.5672 17.2927 26.9152 17.9089 25.4201L28.7282 1.99843C28.8509 1.79395 28.9243 1.57485 28.9243 1.30397V1.15127C28.9256 0.652009 28.5401 0.34528 27.9625 0.34528Z" fill="black"/>
<path d="M39.9544 0.34528H32.0362C31.4586 0.34528 31.0731 0.652009 31.0731 1.14995V1.30265C31.0731 1.65054 31.2892 1.94665 31.5747 2.23744L31.576 2.23877C31.6094 2.2733 31.644 2.30649 31.6787 2.34101C31.8255 2.50301 32.0722 2.84957 32.0616 3.31963V24.5902C32.0722 25.0602 31.8255 25.4068 31.6787 25.5701C31.644 25.6046 31.6094 25.6378 31.576 25.6724L31.5747 25.6737C31.2892 25.9645 31.0731 26.2606 31.0731 26.6085V26.7612C31.0731 27.2591 31.4586 27.5658 32.0362 27.5658H35.0174V27.5632H36.9703V27.5658H39.9516C40.5293 27.5658 40.9148 27.2591 40.9148 26.7612V26.6085C40.9148 26.2606 40.6986 25.9645 40.4131 25.6737L40.4116 25.6724C40.3785 25.6378 40.3438 25.6046 40.3092 25.5701C40.1623 25.4081 39.917 25.0616 39.926 24.5928V3.31963C39.917 2.8509 40.1623 2.50434 40.3092 2.34234C40.3438 2.30782 40.3785 2.27462 40.4116 2.2401L40.4131 2.23877C40.6986 1.94798 40.9148 1.65187 40.9148 1.30397V1.15127C40.9172 0.652009 40.5317 0.34528 39.9544 0.34528Z" fill="black"/>
<path d="M79.1563 0.34528H71.2395C70.6618 0.34528 70.2763 0.652009 70.2763 1.14995V1.30265C70.2763 1.65054 70.4925 1.94665 70.778 2.23744L70.7792 2.23877C70.8127 2.2733 70.8473 2.30649 70.882 2.34101C71.0288 2.50301 71.2753 2.8509 71.2647 3.32095V24.5915C71.2753 25.0616 71.0288 25.4094 70.882 25.5714C70.8473 25.606 70.8127 25.6392 70.7792 25.6737L70.778 25.675C70.4925 25.9658 70.2763 26.2619 70.2763 26.6098V26.7625C70.2763 27.2605 70.6618 27.5672 71.2395 27.5672H74.2208V27.5645H76.1735V27.5672H79.1547C79.7324 27.5672 80.1179 27.2605 80.1179 26.7625V26.6098C80.1179 26.2619 79.9017 25.9658 79.6162 25.675L79.615 25.6737C79.5816 25.6392 79.5469 25.606 79.5123 25.5714C79.3658 25.4094 79.1201 25.0629 79.1295 24.5942V3.31963C79.1201 2.8509 79.3658 2.50434 79.5123 2.34234C79.5469 2.30782 79.5816 2.27462 79.615 2.2401L79.6162 2.23877C79.9017 1.94798 80.1179 1.65187 80.1179 1.30397V1.15127C80.1194 0.652009 79.7339 0.34528 79.1563 0.34528Z" fill="black"/>
<path d="M106.344 0.825888H106.39C106.518 0.825888 106.551 0.521812 106.728 0.521812H106.801V1.76334C106.801 1.88417 106.693 1.92002 106.693 1.99703V2.00633C106.693 2.0382 106.716 2.05812 106.752 2.05812H107.353C107.391 2.05812 107.415 2.0382 107.415 2.00633V1.99703C107.415 1.92135 107.304 1.88417 107.304 1.76334V0.521812H107.377C107.555 0.521812 107.587 0.825888 107.715 0.825888H107.762C107.808 0.825888 107.838 0.796673 107.831 0.7502L107.781 0.396994C107.774 0.338571 107.75 0.315996 107.691 0.315996H106.413C106.354 0.315996 106.329 0.338571 106.322 0.396994L106.273 0.7502C106.268 0.795344 106.297 0.825888 106.344 0.825888Z" fill="black"/>
<path d="M109.9 1.76332L109.68 0.609436C109.657 0.488604 109.781 0.452749 109.781 0.375735V0.36644C109.781 0.334572 109.757 0.314656 109.72 0.314656H109.34C109.27 0.314656 109.223 0.349177 109.201 0.41557L108.895 1.35833L108.57 0.410259C108.547 0.346525 108.499 0.314656 108.43 0.314656H108.06C108.023 0.314656 107.999 0.334572 107.999 0.36644V0.375735C107.999 0.451421 108.118 0.488604 108.1 0.609436L107.926 1.76332C107.908 1.88416 107.824 1.92 107.824 1.99702V2.00631C107.824 2.03818 107.848 2.0581 107.886 2.0581H108.214C108.251 2.0581 108.275 2.03818 108.275 2.00631V1.99702C108.275 1.92133 108.17 1.88416 108.186 1.76332L108.299 0.95998L108.714 1.98109C108.737 2.03287 108.771 2.05544 108.825 2.05544C108.879 2.05544 108.903 2.03021 108.921 1.97976L109.266 1.01044L109.397 1.76465C109.417 1.88282 109.308 1.92133 109.308 1.99835V2.00764C109.308 2.03951 109.332 2.05943 109.369 2.05943H109.939C109.976 2.05943 110 2.03951 110 2.00764V1.99835C110.001 1.92 109.922 1.88283 109.9 1.76332Z" fill="black"/>
</svg>
