<svg width="1142" height="174" viewBox="0 0 1142 174" fill="none" xmlns="http://www.w3.org/2000/svg">
<path d="M36.7382 3.92444H0.702148L39.0782 171H82.3681L120.744 3.92444H85.8782L61.0742 127.476H60.3722L36.7382 3.92444Z" fill="black"/>
<path d="M134.68 171H168.376V3.92444H134.68V171Z" fill="black"/>
<path d="M264.74 60.3184H298.436C298.436 54.2344 297.968 47.7604 297.032 40.8964C296.252 33.8764 294.146 27.4024 290.714 21.4744C287.282 15.3904 282.056 10.3984 275.036 6.49845C268.172 2.59844 258.734 0.648438 246.722 0.648438C234.086 0.648438 224.024 2.83244 216.536 7.20044C209.048 11.4124 203.276 17.3404 199.22 24.9844C195.32 32.6284 192.746 41.8324 191.498 52.5964C190.406 63.2044 189.86 74.8264 189.86 87.4624C189.86 100.254 190.406 111.954 191.498 122.562C192.746 133.17 195.32 142.296 199.22 149.94C203.276 157.584 209.048 163.434 216.536 167.49C224.024 171.546 234.086 173.574 246.722 173.574C257.798 173.574 266.768 171.858 273.632 168.426C280.652 164.994 286.034 160.236 289.778 154.152C293.678 148.068 296.33 140.97 297.734 132.858C299.138 124.746 299.84 116.166 299.84 107.118H266.144C266.144 116.166 265.598 123.498 264.506 129.114C263.414 134.574 261.932 138.864 260.06 141.984C258.188 144.948 255.926 146.976 253.274 148.068C250.778 149.004 248.048 149.472 245.084 149.472C241.496 149.472 238.298 148.77 235.49 147.366C232.838 145.806 230.576 142.92 228.704 138.708C226.988 134.34 225.662 128.256 224.726 120.456C223.946 112.656 223.556 102.438 223.556 89.8025C223.556 77.9465 223.868 67.9624 224.492 59.8504C225.116 51.5824 226.208 44.9524 227.768 39.9604C229.328 34.8124 231.434 31.1464 234.086 28.9624C236.894 26.6224 240.404 25.4524 244.616 25.4524C252.26 25.4524 257.486 28.2604 260.294 33.8764C263.258 39.3364 264.74 48.1504 264.74 60.3184Z" fill="black"/>
<path d="M320.692 171H354.388V3.92444H320.692V171Z" fill="black"/>
<path d="M409.568 87.4624C409.568 76.2304 409.802 66.7144 410.27 58.9144C410.894 51.1144 411.986 44.7184 413.546 39.7264C415.262 34.7344 417.602 31.1464 420.566 28.9624C423.686 26.6224 427.742 25.4524 432.734 25.4524C437.726 25.4524 441.704 26.6224 444.668 28.9624C447.788 31.1464 450.128 34.7344 451.688 39.7264C453.404 44.7184 454.496 51.1144 454.964 58.9144C455.588 66.7144 455.9 76.2304 455.9 87.4624C455.9 98.6944 455.588 108.288 454.964 116.244C454.496 124.044 453.404 130.44 451.688 135.432C450.128 140.268 447.788 143.856 444.668 146.196C441.704 148.38 437.726 149.472 432.734 149.472C427.742 149.472 423.686 148.38 420.566 146.196C417.602 143.856 415.262 140.268 413.546 135.432C411.986 130.44 410.894 124.044 410.27 116.244C409.802 108.288 409.568 98.6944 409.568 87.4624ZM375.872 87.4624C375.872 100.254 376.418 111.954 377.51 122.562C378.758 133.17 381.332 142.296 385.232 149.94C389.288 157.584 395.06 163.434 402.548 167.49C410.036 171.546 420.098 173.574 432.734 173.574C445.37 173.574 455.432 171.546 462.92 167.49C470.408 163.434 476.102 157.584 480.002 149.94C484.058 142.296 486.632 133.17 487.724 122.562C488.972 111.954 489.596 100.254 489.596 87.4624C489.596 74.8264 488.972 63.2044 487.724 52.5964C486.632 41.8324 484.058 32.6284 480.002 24.9844C476.102 17.3404 470.408 11.4124 462.92 7.20044C455.432 2.83244 445.37 0.648438 432.734 0.648438C420.098 0.648438 410.036 2.83244 402.548 7.20044C395.06 11.4124 389.288 17.3404 385.232 24.9844C381.332 32.6284 378.758 41.8324 377.51 52.5964C376.418 63.2044 375.872 74.8264 375.872 87.4624Z" fill="black"/>
<path d="M636.992 60.3184H670.688C670.688 54.2344 670.22 47.7604 669.284 40.8964C668.504 33.8764 666.398 27.4024 662.966 21.4744C659.534 15.3904 654.308 10.3984 647.288 6.49845C640.424 2.59844 630.986 0.648438 618.974 0.648438C606.338 0.648438 596.276 2.83244 588.788 7.20044C581.3 11.4124 575.528 17.3404 571.472 24.9844C567.572 32.6284 564.998 41.8324 563.75 52.5964C562.658 63.2044 562.112 74.8264 562.112 87.4624C562.112 100.254 562.658 111.954 563.75 122.562C564.998 133.17 567.572 142.296 571.472 149.94C575.528 157.584 581.3 163.434 588.788 167.49C596.276 171.546 606.338 173.574 618.974 173.574C630.05 173.574 639.02 171.858 645.884 168.426C652.904 164.994 658.286 160.236 662.03 154.152C665.93 148.068 668.582 140.97 669.986 132.858C671.39 124.746 672.092 116.166 672.092 107.118H638.396C638.396 116.166 637.85 123.498 636.758 129.114C635.666 134.574 634.184 138.864 632.312 141.984C630.44 144.948 628.178 146.976 625.526 148.068C623.03 149.004 620.3 149.472 617.336 149.472C613.748 149.472 610.55 148.77 607.742 147.366C605.09 145.806 602.828 142.92 600.956 138.708C599.24 134.34 597.914 128.256 596.978 120.456C596.198 112.656 595.808 102.438 595.808 89.8025C595.808 77.9465 596.12 67.9624 596.744 59.8504C597.368 51.5824 598.46 44.9524 600.02 39.9604C601.58 34.8124 603.686 31.1464 606.338 28.9624C609.146 26.6224 612.656 25.4524 616.868 25.4524C624.512 25.4524 629.738 28.2604 632.546 33.8764C635.51 39.3364 636.992 48.1504 636.992 60.3184Z" fill="black"/>
<path d="M692.944 171H726.64V3.92444H692.944V171Z" fill="black"/>
<path d="M849.446 3.92444H742.742V31.5364H779.246V171H812.942V31.5364H849.446V3.92444Z" fill="black"/>
<path d="M865.701 171H899.397V3.92444H865.701V171Z" fill="black"/>
<path d="M1017.76 3.92444H924.392V171H1020.1V143.388H958.088V98.4604H1014.25V70.8484H958.088V31.5364H1017.76V3.92444Z" fill="black"/>
<path d="M1064.19 118.818H1030.5V125.604C1030.5 141.048 1034.55 152.904 1042.67 161.172C1050.93 169.44 1064.58 173.574 1083.62 173.574C1101.87 173.574 1116.06 169.596 1126.2 161.64C1136.5 153.528 1141.65 140.658 1141.65 123.03C1141.65 117.882 1141.18 113.202 1140.24 108.99C1139.31 104.778 1137.59 100.956 1135.1 97.5244C1132.76 93.9364 1129.56 90.6604 1125.5 87.6964C1121.45 84.5764 1116.22 81.6124 1109.82 78.8044L1083.85 67.5724C1076.67 64.6084 1071.99 61.4104 1069.81 57.9784C1067.63 54.3904 1066.53 50.0224 1066.53 44.8744C1066.53 42.3784 1066.77 39.9604 1067.24 37.6204C1067.86 35.2804 1068.87 33.2524 1070.28 31.5364C1071.84 29.6644 1073.87 28.1824 1076.36 27.0904C1078.86 25.9984 1081.98 25.4524 1085.72 25.4524C1092.27 25.4524 1096.95 27.6364 1099.76 32.0044C1102.57 36.2164 1103.97 42.3004 1103.97 50.2564H1136.27V45.5764C1136.27 37.6204 1134.94 30.8344 1132.29 25.2184C1129.79 19.4464 1126.2 14.7664 1121.52 11.1784C1117 7.43444 1111.54 4.78244 1105.14 3.22245C1098.9 1.50644 1092.04 0.648438 1084.55 0.648438C1068.48 0.648438 1055.85 4.70444 1046.64 12.8164C1037.44 20.9284 1032.84 33.2524 1032.84 49.7884C1032.84 56.6524 1033.7 62.7364 1035.41 68.0404C1037.13 73.1884 1039.78 77.7905 1043.37 81.8465C1047.11 85.7465 1051.71 89.1784 1057.17 92.1424C1062.63 95.1064 1069.11 97.8364 1076.6 100.332C1082.21 102.204 1086.89 104.076 1090.64 105.948C1094.54 107.664 1097.66 109.614 1100 111.798C1102.34 113.982 1103.97 116.478 1104.91 119.286C1106 121.938 1106.55 125.136 1106.55 128.88C1106.55 135.9 1104.44 141.126 1100.23 144.558C1096.17 147.834 1091.57 149.472 1086.42 149.472C1082.06 149.472 1078.39 148.848 1075.43 147.6C1072.62 146.352 1070.36 144.636 1068.64 142.452C1066.92 140.268 1065.75 137.616 1065.13 134.496C1064.51 131.22 1064.19 127.632 1064.19 123.732V118.818Z" fill="black"/>
</svg>
